<?xml version="1.0" standalone="no"?><!-- Generator: Gravit.io --><svg xmlns="http://www.w3.org/2000/svg" xmlns:xlink="http://www.w3.org/1999/xlink" style="isolation:isolate" viewBox="0 0 65 55" width="65" height="55"><defs><clipPath id="_clipPath_gbPFza3TQIGiVjj8kXTwGTLtG6kcO68s"><rect width="65" height="55"/></clipPath></defs><g clip-path="url(#_clipPath_gbPFza3TQIGiVjj8kXTwGTLtG6kcO68s)"><clipPath id="_clipPath_Phr1YWI3w8A7YYYi9BirMD3GLhoXfKZI"><rect x="0" y="0" width="65" height="55" transform="matrix(1,0,0,1,0,0)" fill="rgb(255,255,255)"/></clipPath><g clip-path="url(#_clipPath_Phr1YWI3w8A7YYYi9BirMD3GLhoXfKZI)"><g id="Athletic"><rect x="0" y="0" width="65" height="55" transform="matrix(1,0,0,1,0,0)" fill="rgb(255,255,255)"/><g id="Group_283"><path d=" M 40.105 23.846 L 41.422 22.529 L 40.105 21.212 L 36.817 24.5 L 28.923 16.606 L 32.211 13.318 L 30.894 12 L 29.577 13.317 L 28.26 12 L 26.288 13.971 L 24.971 12.654 L 23.654 13.971 L 24.971 15.288 L 23 17.26 L 24.317 18.577 L 23 19.894 L 24.317 21.211 L 27.606 17.923 L 35.5 25.817 L 32.212 29.105 L 33.529 30.422 L 34.846 29.105 L 36.163 30.422 L 38.134 28.451 L 39.451 29.768 L 40.768 28.451 L 39.451 27.134 L 41.422 25.163 L 40.105 23.846 Z " fill="rgb(96,96,96)"/><path d=" M 18.516 42 L 17.701 39.773 L 14.127 39.773 L 13.324 42 L 12.164 42 L 15.422 33.469 L 16.406 33.469 L 19.67 42 L 18.516 42 L 18.516 42 Z  M 15.914 34.857 L 14.467 38.848 L 17.367 38.848 L 15.914 34.857 L 15.914 34.857 Z  M 21.035 34.125 L 22.119 34.125 L 22.119 35.66 L 23.303 35.66 L 23.303 36.498 L 22.119 36.498 L 22.119 40.43 L 22.119 40.43 Q 22.119 40.676 22.178 40.825 L 22.178 40.825 L 22.178 40.825 Q 22.236 40.975 22.333 41.057 L 22.333 41.057 L 22.333 41.057 Q 22.43 41.139 22.556 41.165 L 22.556 41.165 L 22.556 41.165 Q 22.682 41.191 22.816 41.191 L 22.816 41.191 L 22.816 41.191 Q 22.951 41.191 23.101 41.165 L 23.101 41.165 L 23.101 41.165 Q 23.25 41.139 23.332 41.121 L 23.332 41.121 L 23.332 42 L 23.332 42 Q 23.203 42.035 22.998 42.076 L 22.998 42.076 L 22.998 42.076 Q 22.793 42.117 22.5 42.117 L 22.5 42.117 L 22.5 42.117 Q 22.201 42.117 21.935 42.032 L 21.935 42.032 L 21.935 42.032 Q 21.668 41.947 21.469 41.748 L 21.469 41.748 L 21.469 41.748 Q 21.27 41.549 21.152 41.224 L 21.152 41.224 L 21.152 41.224 Q 21.035 40.898 21.035 40.424 L 21.035 40.424 L 21.035 36.498 L 19.881 36.498 L 19.881 35.66 L 21.035 35.66 L 21.035 34.125 L 21.035 34.125 Z  M 25.652 33 L 25.652 36.428 L 25.652 36.428 Q 25.992 36.012 26.467 35.777 L 26.467 35.777 L 26.467 35.777 Q 26.941 35.543 27.527 35.543 L 27.527 35.543 L 27.527 35.543 Q 27.99 35.543 28.365 35.669 L 28.365 35.669 L 28.365 35.669 Q 28.74 35.795 29.004 36.073 L 29.004 36.073 L 29.004 36.073 Q 29.268 36.352 29.411 36.788 L 29.411 36.788 L 29.411 36.788 Q 29.555 37.225 29.555 37.846 L 29.555 37.846 L 29.555 42 L 28.471 42 L 28.471 37.834 L 28.471 37.834 Q 28.471 37.465 28.389 37.204 L 28.389 37.204 L 28.389 37.204 Q 28.307 36.943 28.146 36.779 L 28.146 36.779 L 28.146 36.779 Q 27.984 36.615 27.747 36.539 L 27.747 36.539 L 27.747 36.539 Q 27.51 36.463 27.199 36.463 L 27.199 36.463 L 27.199 36.463 Q 26.672 36.463 26.273 36.744 L 26.273 36.744 L 26.273 36.744 Q 25.875 37.025 25.652 37.482 L 25.652 37.482 L 25.652 42 L 24.568 42 L 24.568 33 L 25.652 33 L 25.652 33 Z  M 32.355 33 L 32.355 42 L 31.271 42 L 31.271 33 L 32.355 33 L 32.355 33 Z  M 36.721 42.117 L 36.721 42.117 L 36.721 42.117 Q 36.059 42.117 35.522 41.889 L 35.522 41.889 L 35.522 41.889 Q 34.986 41.66 34.605 41.253 L 34.605 41.253 L 34.605 41.253 Q 34.225 40.846 34.02 40.283 L 34.02 40.283 L 34.02 40.283 Q 33.814 39.721 33.814 39.053 L 33.814 39.053 L 33.814 38.807 L 33.814 38.807 Q 33.814 38.033 34.046 37.424 L 34.046 37.424 L 34.046 37.424 Q 34.277 36.814 34.664 36.398 L 34.664 36.398 L 34.664 36.398 Q 35.051 35.982 35.549 35.763 L 35.549 35.763 L 35.549 35.763 Q 36.047 35.543 36.586 35.543 L 36.586 35.543 L 36.586 35.543 Q 37.266 35.543 37.758 35.78 L 37.758 35.78 L 37.758 35.78 Q 38.25 36.018 38.569 36.434 L 38.569 36.434 L 38.569 36.434 Q 38.889 36.85 39.041 37.418 L 39.041 37.418 L 39.041 37.418 Q 39.193 37.986 39.193 38.654 L 39.193 38.654 L 39.193 39.141 L 34.898 39.141 L 34.898 39.141 Q 34.91 39.58 35.042 39.961 L 35.042 39.961 L 35.042 39.961 Q 35.174 40.342 35.417 40.623 L 35.417 40.623 L 35.417 40.623 Q 35.66 40.904 36.003 41.068 L 36.003 41.068 L 36.003 41.068 Q 36.346 41.232 36.779 41.232 L 36.779 41.232 L 36.779 41.232 Q 37.354 41.232 37.752 40.998 L 37.752 40.998 L 37.752 40.998 Q 38.15 40.764 38.449 40.377 L 38.449 40.377 L 39.111 40.893 L 39.111 40.893 Q 38.959 41.127 38.742 41.347 L 38.742 41.347 L 38.742 41.347 Q 38.525 41.566 38.235 41.739 L 38.235 41.739 L 38.235 41.739 Q 37.945 41.912 37.57 42.015 L 37.57 42.015 L 37.57 42.015 Q 37.195 42.117 36.721 42.117 Z  M 36.586 36.434 L 36.586 36.434 L 36.586 36.434 Q 36.258 36.434 35.982 36.554 L 35.982 36.554 L 35.982 36.554 Q 35.707 36.674 35.49 36.902 L 35.49 36.902 L 35.49 36.902 Q 35.273 37.131 35.13 37.471 L 35.13 37.471 L 35.13 37.471 Q 34.986 37.811 34.934 38.25 L 34.934 38.25 L 38.109 38.25 L 38.109 38.168 L 38.109 38.168 Q 38.092 37.852 38.007 37.541 L 38.007 37.541 L 38.007 37.541 Q 37.922 37.23 37.743 36.984 L 37.743 36.984 L 37.743 36.984 Q 37.564 36.738 37.283 36.586 L 37.283 36.586 L 37.283 36.586 Q 37.002 36.434 36.586 36.434 Z  M 40.834 34.125 L 41.918 34.125 L 41.918 35.66 L 43.102 35.66 L 43.102 36.498 L 41.918 36.498 L 41.918 40.43 L 41.918 40.43 Q 41.918 40.676 41.977 40.825 L 41.977 40.825 L 41.977 40.825 Q 42.035 40.975 42.132 41.057 L 42.132 41.057 L 42.132 41.057 Q 42.229 41.139 42.354 41.165 L 42.354 41.165 L 42.354 41.165 Q 42.48 41.191 42.615 41.191 L 42.615 41.191 L 42.615 41.191 Q 42.75 41.191 42.899 41.165 L 42.899 41.165 L 42.899 41.165 Q 43.049 41.139 43.131 41.121 L 43.131 41.121 L 43.131 42 L 43.131 42 Q 43.002 42.035 42.797 42.076 L 42.797 42.076 L 42.797 42.076 Q 42.592 42.117 42.299 42.117 L 42.299 42.117 L 42.299 42.117 Q 42 42.117 41.733 42.032 L 41.733 42.032 L 41.733 42.032 Q 41.467 41.947 41.268 41.748 L 41.268 41.748 L 41.268 41.748 Q 41.068 41.549 40.951 41.224 L 40.951 41.224 L 40.951 41.224 Q 40.834 40.898 40.834 40.424 L 40.834 40.424 L 40.834 36.498 L 39.68 36.498 L 39.68 35.66 L 40.834 35.66 L 40.834 34.125 L 40.834 34.125 Z  M 45.545 35.66 L 45.545 42 L 44.461 42 L 44.461 35.66 L 45.545 35.66 L 45.545 35.66 Z  M 44.373 33.979 L 44.373 33.979 L 44.373 33.979 Q 44.373 33.715 44.534 33.533 L 44.534 33.533 L 44.534 33.533 Q 44.695 33.352 45.012 33.352 L 45.012 33.352 L 45.012 33.352 Q 45.328 33.352 45.492 33.533 L 45.492 33.533 L 45.492 33.533 Q 45.656 33.715 45.656 33.979 L 45.656 33.979 L 45.656 33.979 Q 45.656 34.242 45.492 34.418 L 45.492 34.418 L 45.492 34.418 Q 45.328 34.594 45.012 34.594 L 45.012 34.594 L 45.012 34.594 Q 44.695 34.594 44.534 34.418 L 44.534 34.418 L 44.534 34.418 Q 44.373 34.242 44.373 33.979 Z  M 49.822 41.232 L 49.822 41.232 L 49.822 41.232 Q 50.109 41.232 50.373 41.139 L 50.373 41.139 L 50.373 41.139 Q 50.637 41.045 50.839 40.881 L 50.839 40.881 L 50.839 40.881 Q 51.041 40.717 51.167 40.491 L 51.167 40.491 L 51.167 40.491 Q 51.293 40.266 51.316 40.002 L 51.316 40.002 L 52.342 40.002 L 52.342 40.002 Q 52.318 40.424 52.11 40.808 L 52.11 40.808 L 52.11 40.808 Q 51.902 41.191 51.563 41.481 L 51.563 41.481 L 51.563 41.481 Q 51.223 41.771 50.774 41.944 L 50.774 41.944 L 50.774 41.944 Q 50.326 42.117 49.822 42.117 L 49.822 42.117 L 49.822 42.117 Q 49.107 42.117 48.577 41.862 L 48.577 41.862 L 48.577 41.862 Q 48.047 41.607 47.695 41.174 L 47.695 41.174 L 47.695 41.174 Q 47.344 40.74 47.171 40.166 L 47.171 40.166 L 47.171 40.166 Q 46.998 39.592 46.998 38.953 L 46.998 38.953 L 46.998 38.707 L 46.998 38.707 Q 46.998 38.068 47.171 37.494 L 47.171 37.494 L 47.171 37.494 Q 47.344 36.92 47.695 36.486 L 47.695 36.486 L 47.695 36.486 Q 48.047 36.053 48.574 35.798 L 48.574 35.798 L 48.574 35.798 Q 49.102 35.543 49.816 35.543 L 49.816 35.543 L 49.816 35.543 Q 50.373 35.543 50.827 35.719 L 50.827 35.719 L 50.827 35.719 Q 51.281 35.895 51.612 36.202 L 51.612 36.202 L 51.612 36.202 Q 51.943 36.51 52.131 36.932 L 52.131 36.932 L 52.131 36.932 Q 52.318 37.354 52.342 37.84 L 52.342 37.84 L 51.316 37.84 L 51.316 37.84 Q 51.293 37.547 51.179 37.292 L 51.179 37.292 L 51.179 37.292 Q 51.064 37.037 50.871 36.847 L 50.871 36.847 L 50.871 36.847 Q 50.678 36.656 50.411 36.545 L 50.411 36.545 L 50.411 36.545 Q 50.145 36.434 49.816 36.434 L 49.816 36.434 L 49.816 36.434 Q 49.313 36.434 48.981 36.633 L 48.981 36.633 L 48.981 36.633 Q 48.65 36.832 48.448 37.157 L 48.448 37.157 L 48.448 37.157 Q 48.246 37.482 48.164 37.89 L 48.164 37.89 L 48.164 37.89 Q 48.082 38.297 48.082 38.707 L 48.082 38.707 L 48.082 38.953 L 48.082 38.953 Q 48.082 39.375 48.164 39.782 L 48.164 39.782 L 48.164 39.782 Q 48.246 40.189 48.445 40.512 L 48.445 40.512 L 48.445 40.512 Q 48.645 40.834 48.979 41.033 L 48.979 41.033 L 48.979 41.033 Q 49.313 41.232 49.822 41.232 Z " fill-rule="evenodd" fill="rgb(96,96,96)"/></g></g></g></g></svg>