<?xml version="1.0" standalone="no"?><!-- Generator: Gravit.io --><svg xmlns="http://www.w3.org/2000/svg" xmlns:xlink="http://www.w3.org/1999/xlink" style="isolation:isolate" viewBox="0 0 149 229" width="149" height="229"><defs><clipPath id="_clipPath_HiVZlZJLpX7LT95t80k7Neh0InkLZl8h"><rect width="149" height="229"/></clipPath></defs><g clip-path="url(#_clipPath_HiVZlZJLpX7LT95t80k7Neh0InkLZl8h)"><path d=" M 77.764 123.395 L 77.764 121.91 L 82.617 121.91 L 82.617 128.854 L 82.617 128.854 Q 81.485 129.215 80.313 129.401 L 80.313 129.401 L 80.313 129.401 Q 79.141 129.586 77.598 129.586 L 77.598 129.586 L 77.598 129.586 Q 74.356 129.586 72.549 127.657 L 72.549 127.657 L 72.549 127.657 Q 70.742 125.729 70.742 122.252 L 70.742 122.252 L 70.742 122.252 Q 70.742 120.026 71.636 118.351 L 71.636 118.351 L 71.636 118.351 Q 72.53 116.676 74.209 115.792 L 74.209 115.792 L 74.209 115.792 Q 75.889 114.908 78.145 114.908 L 78.145 114.908 L 78.145 114.908 Q 80.43 114.908 82.403 115.748 L 82.403 115.748 L 81.758 117.213 L 81.758 117.213 Q 79.824 116.393 78.037 116.393 L 78.037 116.393 L 78.037 116.393 Q 75.43 116.393 73.965 117.946 L 73.965 117.946 L 73.965 117.946 Q 72.5 119.498 72.5 122.252 L 72.5 122.252 L 72.5 122.252 Q 72.5 125.143 73.911 126.637 L 73.911 126.637 L 73.911 126.637 Q 75.323 128.131 78.057 128.131 L 78.057 128.131 L 78.057 128.131 Q 79.541 128.131 80.957 127.789 L 80.957 127.789 L 80.957 123.395 L 77.764 123.395 Z  M 90.684 118.492 L 90.684 118.492 L 90.684 118.492 Q 91.397 118.492 91.963 118.61 L 91.963 118.61 L 91.739 120.114 L 91.739 120.114 Q 91.074 119.967 90.567 119.967 L 90.567 119.967 L 90.567 119.967 Q 89.268 119.967 88.345 121.022 L 88.345 121.022 L 88.345 121.022 Q 87.422 122.076 87.422 123.649 L 87.422 123.649 L 87.422 129.391 L 85.801 129.391 L 85.801 118.688 L 87.139 118.688 L 87.324 120.67 L 87.403 120.67 L 87.403 120.67 Q 87.998 119.625 88.838 119.059 L 88.838 119.059 L 88.838 119.059 Q 89.678 118.492 90.684 118.492 Z  M 101.748 129.391 L 100.547 129.391 L 100.225 127.867 L 100.147 127.867 L 100.147 127.867 Q 99.346 128.873 98.55 129.23 L 98.55 129.23 L 98.55 129.23 Q 97.754 129.586 96.563 129.586 L 96.563 129.586 L 96.563 129.586 Q 94.971 129.586 94.068 128.766 L 94.068 128.766 L 94.068 128.766 Q 93.164 127.946 93.164 126.432 L 93.164 126.432 L 93.164 126.432 Q 93.164 123.19 98.35 123.033 L 98.35 123.033 L 100.166 122.975 L 100.166 122.311 L 100.166 122.311 Q 100.166 121.051 99.624 120.45 L 99.624 120.45 L 99.624 120.45 Q 99.082 119.85 97.891 119.85 L 97.891 119.85 L 97.891 119.85 Q 96.553 119.85 94.864 120.67 L 94.864 120.67 L 94.365 119.43 L 94.365 119.43 Q 95.156 119 96.099 118.756 L 96.099 118.756 L 96.099 118.756 Q 97.041 118.512 97.989 118.512 L 97.989 118.512 L 97.989 118.512 Q 99.903 118.512 100.825 119.362 L 100.825 119.362 L 100.825 119.362 Q 101.748 120.211 101.748 122.086 L 101.748 122.086 L 101.748 129.391 Z  M 96.885 128.248 L 96.885 128.248 L 96.885 128.248 Q 98.399 128.248 99.263 127.418 L 99.263 127.418 L 99.263 127.418 Q 100.127 126.588 100.127 125.094 L 100.127 125.094 L 100.127 124.127 L 98.506 124.196 L 98.506 124.196 Q 96.573 124.264 95.718 124.796 L 95.718 124.796 L 95.718 124.796 Q 94.864 125.328 94.864 126.451 L 94.864 126.451 L 94.864 126.451 Q 94.864 127.33 95.396 127.789 L 95.396 127.789 L 95.396 127.789 Q 95.928 128.248 96.885 128.248 Z  M 112.588 129.391 L 112.373 127.955 L 112.285 127.955 L 112.285 127.955 Q 111.162 129.586 108.926 129.586 L 108.926 129.586 L 108.926 129.586 Q 106.826 129.586 105.659 128.151 L 105.659 128.151 L 105.659 128.151 Q 104.492 126.715 104.492 124.069 L 104.492 124.069 L 104.492 124.069 Q 104.492 121.422 105.664 119.957 L 105.664 119.957 L 105.664 119.957 Q 106.836 118.492 108.926 118.492 L 108.926 118.492 L 108.926 118.492 Q 111.104 118.492 112.266 120.074 L 112.266 120.074 L 112.393 120.074 L 112.324 119.303 L 112.285 118.551 L 112.285 114.196 L 113.906 114.196 L 113.906 129.391 L 112.588 129.391 Z  M 109.131 128.229 L 109.131 128.229 L 109.131 128.229 Q 110.791 128.229 111.538 127.325 L 111.538 127.325 L 111.538 127.325 Q 112.285 126.422 112.285 124.41 L 112.285 124.41 L 112.285 124.069 L 112.285 124.069 Q 112.285 121.793 111.529 120.822 L 111.529 120.822 L 111.529 120.822 Q 110.772 119.85 109.112 119.85 L 109.112 119.85 L 109.112 119.85 Q 107.686 119.85 106.929 120.958 L 106.929 120.958 L 106.929 120.958 Q 106.172 122.067 106.172 124.088 L 106.172 124.088 L 106.172 124.088 Q 106.172 126.139 106.924 127.184 L 106.924 127.184 L 106.924 127.184 Q 107.676 128.229 109.131 128.229 Z  M 121.865 129.586 L 121.865 129.586 L 121.865 129.586 Q 119.492 129.586 118.12 128.141 L 118.12 128.141 L 118.12 128.141 Q 116.748 126.696 116.748 124.127 L 116.748 124.127 L 116.748 124.127 Q 116.748 121.539 118.023 120.016 L 118.023 120.016 L 118.023 120.016 Q 119.297 118.492 121.446 118.492 L 121.446 118.492 L 121.446 118.492 Q 123.457 118.492 124.629 119.816 L 124.629 119.816 L 124.629 119.816 Q 125.801 121.139 125.801 123.307 L 125.801 123.307 L 125.801 124.332 L 118.428 124.332 L 118.428 124.332 Q 118.477 126.217 119.38 127.194 L 119.38 127.194 L 119.38 127.194 Q 120.283 128.17 121.924 128.17 L 121.924 128.17 L 121.924 128.17 Q 123.653 128.17 125.342 127.448 L 125.342 127.448 L 125.342 128.893 L 125.342 128.893 Q 124.483 129.264 123.716 129.425 L 123.716 129.425 L 123.716 129.425 Q 122.949 129.586 121.865 129.586 Z  M 121.426 119.85 L 121.426 119.85 L 121.426 119.85 Q 120.137 119.85 119.37 120.69 L 119.37 120.69 L 119.37 120.69 Q 118.604 121.53 118.467 123.014 L 118.467 123.014 L 124.063 123.014 L 124.063 123.014 Q 124.063 121.481 123.379 120.665 L 123.379 120.665 L 123.379 120.665 Q 122.696 119.85 121.426 119.85 Z  M 29.102 115.114 L 29.102 129.391 L 27.52 129.391 L 27.52 119.215 L 27.52 119.215 Q 27.52 117.946 27.598 116.813 L 27.598 116.813 L 27.598 116.813 Q 27.393 117.018 27.139 117.242 L 27.139 117.242 L 27.139 117.242 Q 26.885 117.467 24.815 119.147 L 24.815 119.147 L 23.955 118.033 L 27.735 115.114 L 29.102 115.114 Z  M 40.537 115.114 L 40.537 129.391 L 38.955 129.391 L 38.955 119.215 L 38.955 119.215 Q 38.955 117.946 39.033 116.813 L 39.033 116.813 L 39.033 116.813 Q 38.828 117.018 38.574 117.242 L 38.574 117.242 L 38.574 117.242 Q 38.321 117.467 36.25 119.147 L 36.25 119.147 L 35.391 118.033 L 39.17 115.114 L 40.537 115.114 Z  M 50.166 128.248 L 50.166 128.248 L 50.166 128.248 Q 50.596 128.248 50.996 128.185 L 50.996 128.185 L 50.996 128.185 Q 51.397 128.121 51.631 128.053 L 51.631 128.053 L 51.631 129.293 L 51.631 129.293 Q 51.367 129.42 50.855 129.503 L 50.855 129.503 L 50.855 129.503 Q 50.342 129.586 49.932 129.586 L 49.932 129.586 L 49.932 129.586 Q 46.826 129.586 46.826 126.315 L 46.826 126.315 L 46.826 119.948 L 45.293 119.948 L 45.293 119.166 L 46.826 118.492 L 47.51 116.207 L 48.448 116.207 L 48.448 118.688 L 51.553 118.688 L 51.553 119.948 L 48.448 119.948 L 48.448 126.246 L 48.448 126.246 Q 48.448 127.213 48.906 127.731 L 48.906 127.731 L 48.906 127.731 Q 49.365 128.248 50.166 128.248 Z  M 62.715 129.391 L 61.094 129.391 L 61.094 122.467 L 61.094 122.467 Q 61.094 121.158 60.498 120.514 L 60.498 120.514 L 60.498 120.514 Q 59.903 119.869 58.633 119.869 L 58.633 119.869 L 58.633 119.869 Q 56.944 119.869 56.167 120.787 L 56.167 120.787 L 56.167 120.787 Q 55.391 121.705 55.391 123.795 L 55.391 123.795 L 55.391 129.391 L 53.77 129.391 L 53.77 114.196 L 55.391 114.196 L 55.391 118.795 L 55.391 118.795 Q 55.391 119.625 55.313 120.172 L 55.313 120.172 L 55.41 120.172 L 55.41 120.172 Q 55.889 119.401 56.773 118.956 L 56.773 118.956 L 56.773 118.956 Q 57.656 118.512 58.789 118.512 L 58.789 118.512 L 58.789 118.512 Q 60.752 118.512 61.734 119.445 L 61.734 119.445 L 61.734 119.445 Q 62.715 120.377 62.715 122.408 L 62.715 122.408 L 62.715 129.391 Z " fill-rule="evenodd" fill="rgb(0,0,0)"/><path d=" M 49.265 106.944 L 49.265 107.771 L 44.103 107.771 L 44.103 107.003 L 46.171 104.925 L 46.171 104.925 Q 47.116 103.969 47.417 103.56 L 47.417 103.56 L 47.417 103.56 Q 47.718 103.152 47.868 102.765 L 47.868 102.765 L 47.868 102.765 Q 48.019 102.379 48.019 101.933 L 48.019 101.933 L 48.019 101.933 Q 48.019 101.304 47.637 100.937 L 47.637 100.937 L 47.637 100.937 Q 47.256 100.569 46.579 100.569 L 46.579 100.569 L 46.579 100.569 Q 46.091 100.569 45.653 100.73 L 45.653 100.73 L 45.653 100.73 Q 45.215 100.891 44.678 101.315 L 44.678 101.315 L 44.205 100.708 L 44.205 100.708 Q 45.29 99.806 46.569 99.806 L 46.569 99.806 L 46.569 99.806 Q 47.675 99.806 48.303 100.373 L 48.303 100.373 L 48.303 100.373 Q 48.932 100.939 48.932 101.895 L 48.932 101.895 L 48.932 101.895 Q 48.932 102.642 48.513 103.372 L 48.513 103.372 L 48.513 103.372 Q 48.094 104.103 46.945 105.22 L 46.945 105.22 L 45.226 106.901 L 45.226 106.944 L 49.265 106.944 Z  M 55.597 103.834 L 55.597 103.834 L 55.597 103.834 Q 55.597 105.87 54.956 106.874 L 54.956 106.874 L 54.956 106.874 Q 54.314 107.879 52.992 107.879 L 52.992 107.879 L 52.992 107.879 Q 51.725 107.879 51.064 106.85 L 51.064 106.85 L 51.064 106.85 Q 50.404 105.822 50.404 103.834 L 50.404 103.834 L 50.404 103.834 Q 50.404 101.782 51.043 100.789 L 51.043 100.789 L 51.043 100.789 Q 51.682 99.795 52.992 99.795 L 52.992 99.795 L 52.992 99.795 Q 54.271 99.795 54.934 100.832 L 54.934 100.832 L 54.934 100.832 Q 55.597 101.868 55.597 103.834 Z  M 51.306 103.834 L 51.306 103.834 L 51.306 103.834 Q 51.306 105.548 51.709 106.329 L 51.709 106.329 L 51.709 106.329 Q 52.112 107.111 52.992 107.111 L 52.992 107.111 L 52.992 107.111 Q 53.884 107.111 54.284 106.318 L 54.284 106.318 L 54.284 106.318 Q 54.684 105.526 54.684 103.834 L 54.684 103.834 L 54.684 103.834 Q 54.684 102.142 54.284 101.355 L 54.284 101.355 L 54.284 101.355 Q 53.884 100.569 52.992 100.569 L 52.992 100.569 L 52.992 100.569 Q 52.112 100.569 51.709 101.345 L 51.709 101.345 L 51.709 101.345 Q 51.306 102.121 51.306 103.834 Z  M 58.992 107.143 L 58.992 107.143 L 58.992 107.143 Q 59.228 107.143 59.448 107.108 L 59.448 107.108 L 59.448 107.108 Q 59.669 107.073 59.798 107.035 L 59.798 107.035 L 59.798 107.718 L 59.798 107.718 Q 59.653 107.787 59.371 107.833 L 59.371 107.833 L 59.371 107.833 Q 59.089 107.879 58.863 107.879 L 58.863 107.879 L 58.863 107.879 Q 57.155 107.879 57.155 106.079 L 57.155 106.079 L 57.155 102.577 L 56.312 102.577 L 56.312 102.148 L 57.155 101.777 L 57.531 100.52 L 58.047 100.52 L 58.047 101.885 L 59.755 101.885 L 59.755 102.577 L 58.047 102.577 L 58.047 106.042 L 58.047 106.042 Q 58.047 106.573 58.299 106.858 L 58.299 106.858 L 58.299 106.858 Q 58.552 107.143 58.992 107.143 Z  M 65.894 107.771 L 65.002 107.771 L 65.002 103.963 L 65.002 103.963 Q 65.002 103.243 64.675 102.889 L 64.675 102.889 L 64.675 102.889 Q 64.347 102.534 63.649 102.534 L 63.649 102.534 L 63.649 102.534 Q 62.719 102.534 62.292 103.039 L 62.292 103.039 L 62.292 103.039 Q 61.865 103.544 61.865 104.694 L 61.865 104.694 L 61.865 107.771 L 60.974 107.771 L 60.974 99.414 L 61.865 99.414 L 61.865 101.944 L 61.865 101.944 Q 61.865 102.4 61.823 102.701 L 61.823 102.701 L 61.876 102.701 L 61.876 102.701 Q 62.139 102.277 62.625 102.032 L 62.625 102.032 L 62.625 102.032 Q 63.112 101.788 63.735 101.788 L 63.735 101.788 L 63.735 101.788 Q 64.814 101.788 65.354 102.301 L 65.354 102.301 L 65.354 102.301 Q 65.894 102.814 65.894 103.931 L 65.894 103.931 L 65.894 107.771 Z  M 24.112 104.414 L 24.112 107.771 L 23.199 107.771 L 23.199 99.919 L 27.576 99.919 L 27.576 100.73 L 24.112 100.73 L 24.112 103.603 L 27.367 103.603 L 27.367 104.414 L 24.112 104.414 Z  M 31.229 107.879 L 31.229 107.879 L 31.229 107.879 Q 29.924 107.879 29.169 107.084 L 29.169 107.084 L 29.169 107.084 Q 28.414 106.289 28.414 104.876 L 28.414 104.876 L 28.414 104.876 Q 28.414 103.453 29.115 102.615 L 29.115 102.615 L 29.115 102.615 Q 29.816 101.777 30.998 101.777 L 30.998 101.777 L 30.998 101.777 Q 32.104 101.777 32.749 102.505 L 32.749 102.505 L 32.749 102.505 Q 33.393 103.233 33.393 104.425 L 33.393 104.425 L 33.393 104.989 L 29.338 104.989 L 29.338 104.989 Q 29.365 106.026 29.862 106.563 L 29.862 106.563 L 29.862 106.563 Q 30.359 107.1 31.261 107.1 L 31.261 107.1 L 31.261 107.1 Q 32.212 107.1 33.141 106.702 L 33.141 106.702 L 33.141 107.497 L 33.141 107.497 Q 32.668 107.701 32.247 107.79 L 32.247 107.79 L 32.247 107.79 Q 31.825 107.879 31.229 107.879 Z  M 30.987 102.524 L 30.987 102.524 L 30.987 102.524 Q 30.278 102.524 29.856 102.986 L 29.856 102.986 L 29.856 102.986 Q 29.435 103.448 29.36 104.264 L 29.36 104.264 L 32.437 104.264 L 32.437 104.264 Q 32.437 103.421 32.061 102.972 L 32.061 102.972 L 32.061 102.972 Q 31.685 102.524 30.987 102.524 Z  M 37.653 101.788 L 37.653 101.788 L 37.653 101.788 Q 38.813 101.788 39.455 102.58 L 39.455 102.58 L 39.455 102.58 Q 40.096 103.372 40.096 104.823 L 40.096 104.823 L 40.096 104.823 Q 40.096 106.273 39.449 107.076 L 39.449 107.076 L 39.449 107.076 Q 38.802 107.879 37.653 107.879 L 37.653 107.879 L 37.653 107.879 Q 37.078 107.879 36.603 107.667 L 36.603 107.667 L 36.603 107.667 Q 36.127 107.454 35.805 107.014 L 35.805 107.014 L 35.74 107.014 L 35.552 107.771 L 34.913 107.771 L 34.913 99.414 L 35.805 99.414 L 35.805 101.444 L 35.805 101.444 Q 35.805 102.126 35.762 102.669 L 35.762 102.669 L 35.805 102.669 L 35.805 102.669 Q 36.428 101.788 37.653 101.788 Z  M 37.524 102.534 L 37.524 102.534 L 37.524 102.534 Q 36.611 102.534 36.208 103.058 L 36.208 103.058 L 36.208 103.058 Q 35.805 103.582 35.805 104.823 L 35.805 104.823 L 35.805 104.823 Q 35.805 106.063 36.219 106.598 L 36.219 106.598 L 36.219 106.598 Q 36.632 107.132 37.545 107.132 L 37.545 107.132 L 37.545 107.132 Q 38.367 107.132 38.77 106.533 L 38.77 106.533 L 38.77 106.533 Q 39.173 105.934 39.173 104.812 L 39.173 104.812 L 39.173 104.812 Q 39.173 103.662 38.77 103.098 L 38.77 103.098 L 38.77 103.098 Q 38.367 102.534 37.524 102.534 Z " fill-rule="evenodd" fill="rgb(0,0,0)"/></g></svg>