<?xml version="1.0" standalone="no"?><!-- Generator: Gravit.io --><svg xmlns="http://www.w3.org/2000/svg" xmlns:xlink="http://www.w3.org/1999/xlink" style="isolation:isolate" viewBox="0 0 149 229" width="149" height="229"><defs><clipPath id="_clipPath_W6zpumL3SmBOHiHyMOwKyPJhJxAoIMJ9"><rect width="149" height="229"/></clipPath></defs><g clip-path="url(#_clipPath_W6zpumL3SmBOHiHyMOwKyPJhJxAoIMJ9)"><path d=" M 77.386 123.895 L 77.386 122.41 L 82.239 122.41 L 82.239 129.354 L 82.239 129.354 Q 81.106 129.715 79.935 129.901 L 79.935 129.901 L 79.935 129.901 Q 78.763 130.086 77.22 130.086 L 77.22 130.086 L 77.22 130.086 Q 73.978 130.086 72.171 128.157 L 72.171 128.157 L 72.171 128.157 Q 70.364 126.229 70.364 122.752 L 70.364 122.752 L 70.364 122.752 Q 70.364 120.526 71.258 118.851 L 71.258 118.851 L 71.258 118.851 Q 72.151 117.176 73.831 116.292 L 73.831 116.292 L 73.831 116.292 Q 75.511 115.408 77.767 115.408 L 77.767 115.408 L 77.767 115.408 Q 80.052 115.408 82.024 116.248 L 82.024 116.248 L 81.38 117.713 L 81.38 117.713 Q 79.446 116.893 77.659 116.893 L 77.659 116.893 L 77.659 116.893 Q 75.052 116.893 73.587 118.446 L 73.587 118.446 L 73.587 118.446 Q 72.122 119.998 72.122 122.752 L 72.122 122.752 L 72.122 122.752 Q 72.122 125.643 73.533 127.137 L 73.533 127.137 L 73.533 127.137 Q 74.944 128.631 77.679 128.631 L 77.679 128.631 L 77.679 128.631 Q 79.163 128.631 80.579 128.289 L 80.579 128.289 L 80.579 123.895 L 77.386 123.895 Z  M 90.306 118.992 L 90.306 118.992 L 90.306 118.992 Q 91.019 118.992 91.585 119.11 L 91.585 119.11 L 91.36 120.614 L 91.36 120.614 Q 90.696 120.467 90.188 120.467 L 90.188 120.467 L 90.188 120.467 Q 88.89 120.467 87.967 121.522 L 87.967 121.522 L 87.967 121.522 Q 87.044 122.576 87.044 124.149 L 87.044 124.149 L 87.044 129.891 L 85.423 129.891 L 85.423 119.188 L 86.761 119.188 L 86.946 121.17 L 87.024 121.17 L 87.024 121.17 Q 87.62 120.125 88.46 119.559 L 88.46 119.559 L 88.46 119.559 Q 89.3 118.992 90.306 118.992 Z  M 101.37 129.891 L 100.169 129.891 L 99.847 128.367 L 99.769 128.367 L 99.769 128.367 Q 98.968 129.373 98.172 129.73 L 98.172 129.73 L 98.172 129.73 Q 97.376 130.086 96.185 130.086 L 96.185 130.086 L 96.185 130.086 Q 94.593 130.086 93.689 129.266 L 93.689 129.266 L 93.689 129.266 Q 92.786 128.446 92.786 126.932 L 92.786 126.932 L 92.786 126.932 Q 92.786 123.69 97.972 123.533 L 97.972 123.533 L 99.788 123.475 L 99.788 122.811 L 99.788 122.811 Q 99.788 121.551 99.246 120.95 L 99.246 120.95 L 99.246 120.95 Q 98.704 120.35 97.513 120.35 L 97.513 120.35 L 97.513 120.35 Q 96.175 120.35 94.485 121.17 L 94.485 121.17 L 93.987 119.93 L 93.987 119.93 Q 94.778 119.5 95.721 119.256 L 95.721 119.256 L 95.721 119.256 Q 96.663 119.012 97.61 119.012 L 97.61 119.012 L 97.61 119.012 Q 99.524 119.012 100.447 119.862 L 100.447 119.862 L 100.447 119.862 Q 101.37 120.711 101.37 122.586 L 101.37 122.586 L 101.37 129.891 Z  M 96.507 128.748 L 96.507 128.748 L 96.507 128.748 Q 98.021 128.748 98.885 127.918 L 98.885 127.918 L 98.885 127.918 Q 99.749 127.088 99.749 125.594 L 99.749 125.594 L 99.749 124.627 L 98.128 124.696 L 98.128 124.696 Q 96.194 124.764 95.34 125.296 L 95.34 125.296 L 95.34 125.296 Q 94.485 125.828 94.485 126.951 L 94.485 126.951 L 94.485 126.951 Q 94.485 127.83 95.018 128.289 L 95.018 128.289 L 95.018 128.289 Q 95.55 128.748 96.507 128.748 Z  M 112.21 129.891 L 111.995 128.455 L 111.907 128.455 L 111.907 128.455 Q 110.784 130.086 108.548 130.086 L 108.548 130.086 L 108.548 130.086 Q 106.448 130.086 105.281 128.651 L 105.281 128.651 L 105.281 128.651 Q 104.114 127.215 104.114 124.569 L 104.114 124.569 L 104.114 124.569 Q 104.114 121.922 105.286 120.457 L 105.286 120.457 L 105.286 120.457 Q 106.458 118.992 108.548 118.992 L 108.548 118.992 L 108.548 118.992 Q 110.726 118.992 111.888 120.574 L 111.888 120.574 L 112.015 120.574 L 111.946 119.803 L 111.907 119.051 L 111.907 114.696 L 113.528 114.696 L 113.528 129.891 L 112.21 129.891 Z  M 108.753 128.729 L 108.753 128.729 L 108.753 128.729 Q 110.413 128.729 111.16 127.825 L 111.16 127.825 L 111.16 127.825 Q 111.907 126.922 111.907 124.91 L 111.907 124.91 L 111.907 124.569 L 111.907 124.569 Q 111.907 122.293 111.15 121.322 L 111.15 121.322 L 111.15 121.322 Q 110.394 120.35 108.733 120.35 L 108.733 120.35 L 108.733 120.35 Q 107.308 120.35 106.551 121.458 L 106.551 121.458 L 106.551 121.458 Q 105.794 122.567 105.794 124.588 L 105.794 124.588 L 105.794 124.588 Q 105.794 126.639 106.546 127.684 L 106.546 127.684 L 106.546 127.684 Q 107.298 128.729 108.753 128.729 Z  M 121.487 130.086 L 121.487 130.086 L 121.487 130.086 Q 119.114 130.086 117.742 128.641 L 117.742 128.641 L 117.742 128.641 Q 116.37 127.196 116.37 124.627 L 116.37 124.627 L 116.37 124.627 Q 116.37 122.039 117.645 120.516 L 117.645 120.516 L 117.645 120.516 Q 118.919 118.992 121.067 118.992 L 121.067 118.992 L 121.067 118.992 Q 123.079 118.992 124.251 120.316 L 124.251 120.316 L 124.251 120.316 Q 125.423 121.639 125.423 123.807 L 125.423 123.807 L 125.423 124.832 L 118.05 124.832 L 118.05 124.832 Q 118.099 126.717 119.002 127.694 L 119.002 127.694 L 119.002 127.694 Q 119.905 128.67 121.546 128.67 L 121.546 128.67 L 121.546 128.67 Q 123.274 128.67 124.964 127.948 L 124.964 127.948 L 124.964 129.393 L 124.964 129.393 Q 124.104 129.764 123.338 129.925 L 123.338 129.925 L 123.338 129.925 Q 122.571 130.086 121.487 130.086 Z  M 121.048 120.35 L 121.048 120.35 L 121.048 120.35 Q 119.759 120.35 118.992 121.19 L 118.992 121.19 L 118.992 121.19 Q 118.226 122.03 118.089 123.514 L 118.089 123.514 L 123.685 123.514 L 123.685 123.514 Q 123.685 121.981 123.001 121.165 L 123.001 121.165 L 123.001 121.165 Q 122.317 120.35 121.048 120.35 Z  M 28.724 115.614 L 28.724 129.891 L 27.142 129.891 L 27.142 119.715 L 27.142 119.715 Q 27.142 118.446 27.22 117.313 L 27.22 117.313 L 27.22 117.313 Q 27.015 117.518 26.761 117.742 L 26.761 117.742 L 26.761 117.742 Q 26.507 117.967 24.437 119.647 L 24.437 119.647 L 23.577 118.533 L 27.356 115.614 L 28.724 115.614 Z  M 43.616 122.733 L 43.616 122.733 L 43.616 122.733 Q 43.616 126.434 42.449 128.26 L 42.449 128.26 L 42.449 128.26 Q 41.282 130.086 38.88 130.086 L 38.88 130.086 L 38.88 130.086 Q 36.575 130.086 35.374 128.216 L 35.374 128.216 L 35.374 128.216 Q 34.173 126.346 34.173 122.733 L 34.173 122.733 L 34.173 122.733 Q 34.173 119.002 35.335 117.196 L 35.335 117.196 L 35.335 117.196 Q 36.497 115.389 38.88 115.389 L 38.88 115.389 L 38.88 115.389 Q 41.204 115.389 42.41 117.274 L 42.41 117.274 L 42.41 117.274 Q 43.616 119.158 43.616 122.733 Z  M 35.813 122.733 L 35.813 122.733 L 35.813 122.733 Q 35.813 125.848 36.546 127.269 L 36.546 127.269 L 36.546 127.269 Q 37.278 128.69 38.88 128.69 L 38.88 128.69 L 38.88 128.69 Q 40.501 128.69 41.229 127.249 L 41.229 127.249 L 41.229 127.249 Q 41.956 125.809 41.956 122.733 L 41.956 122.733 L 41.956 122.733 Q 41.956 119.656 41.229 118.226 L 41.229 118.226 L 41.229 118.226 Q 40.501 116.795 38.88 116.795 L 38.88 116.795 L 38.88 116.795 Q 37.278 116.795 36.546 118.206 L 36.546 118.206 L 36.546 118.206 Q 35.813 119.617 35.813 122.733 Z  M 49.788 128.748 L 49.788 128.748 L 49.788 128.748 Q 50.218 128.748 50.618 128.685 L 50.618 128.685 L 50.618 128.685 Q 51.019 128.621 51.253 128.553 L 51.253 128.553 L 51.253 129.793 L 51.253 129.793 Q 50.989 129.92 50.477 130.003 L 50.477 130.003 L 50.477 130.003 Q 49.964 130.086 49.554 130.086 L 49.554 130.086 L 49.554 130.086 Q 46.448 130.086 46.448 126.815 L 46.448 126.815 L 46.448 120.448 L 44.915 120.448 L 44.915 119.666 L 46.448 118.992 L 47.132 116.707 L 48.069 116.707 L 48.069 119.188 L 51.175 119.188 L 51.175 120.448 L 48.069 120.448 L 48.069 126.746 L 48.069 126.746 Q 48.069 127.713 48.528 128.231 L 48.528 128.231 L 48.528 128.231 Q 48.987 128.748 49.788 128.748 Z  M 62.337 129.891 L 60.716 129.891 L 60.716 122.967 L 60.716 122.967 Q 60.716 121.658 60.12 121.014 L 60.12 121.014 L 60.12 121.014 Q 59.524 120.369 58.255 120.369 L 58.255 120.369 L 58.255 120.369 Q 56.565 120.369 55.789 121.287 L 55.789 121.287 L 55.789 121.287 Q 55.013 122.205 55.013 124.295 L 55.013 124.295 L 55.013 129.891 L 53.392 129.891 L 53.392 114.696 L 55.013 114.696 L 55.013 119.295 L 55.013 119.295 Q 55.013 120.125 54.935 120.672 L 54.935 120.672 L 55.032 120.672 L 55.032 120.672 Q 55.511 119.901 56.395 119.456 L 56.395 119.456 L 56.395 119.456 Q 57.278 119.012 58.411 119.012 L 58.411 119.012 L 58.411 119.012 Q 60.374 119.012 61.355 119.945 L 61.355 119.945 L 61.355 119.945 Q 62.337 120.877 62.337 122.908 L 62.337 122.908 L 62.337 129.891 Z " fill-rule="evenodd" fill="rgb(0,0,0)"/><path d=" M 63.966 99.419 L 63.966 107.271 L 63.096 107.271 L 63.096 101.675 L 63.096 101.675 Q 63.096 100.976 63.139 100.353 L 63.139 100.353 L 63.139 100.353 Q 63.026 100.466 62.887 100.59 L 62.887 100.59 L 62.887 100.59 Q 62.747 100.713 61.608 101.637 L 61.608 101.637 L 61.136 101.025 L 63.214 99.419 L 63.966 99.419 Z  M 72.114 106.444 L 72.114 107.271 L 66.953 107.271 L 66.953 106.503 L 69.021 104.425 L 69.021 104.425 Q 69.966 103.469 70.267 103.06 L 70.267 103.06 L 70.267 103.06 Q 70.567 102.652 70.718 102.265 L 70.718 102.265 L 70.718 102.265 Q 70.868 101.879 70.868 101.433 L 70.868 101.433 L 70.868 101.433 Q 70.868 100.804 70.487 100.437 L 70.487 100.437 L 70.487 100.437 Q 70.105 100.069 69.429 100.069 L 69.429 100.069 L 69.429 100.069 Q 68.94 100.069 68.502 100.23 L 68.502 100.23 L 68.502 100.23 Q 68.064 100.391 67.527 100.815 L 67.527 100.815 L 67.055 100.208 L 67.055 100.208 Q 68.14 99.306 69.418 99.306 L 69.418 99.306 L 69.418 99.306 Q 70.524 99.306 71.153 99.873 L 71.153 99.873 L 71.153 99.873 Q 71.781 100.439 71.781 101.395 L 71.781 101.395 L 71.781 101.395 Q 71.781 102.142 71.362 102.872 L 71.362 102.872 L 71.362 102.872 Q 70.943 103.603 69.794 104.72 L 69.794 104.72 L 68.075 106.401 L 68.075 106.444 L 72.114 106.444 Z  M 75.552 106.643 L 75.552 106.643 L 75.552 106.643 Q 75.788 106.643 76.008 106.608 L 76.008 106.608 L 76.008 106.608 Q 76.229 106.573 76.357 106.535 L 76.357 106.535 L 76.357 107.218 L 76.357 107.218 Q 76.212 107.287 75.93 107.333 L 75.93 107.333 L 75.93 107.333 Q 75.648 107.379 75.423 107.379 L 75.423 107.379 L 75.423 107.379 Q 73.715 107.379 73.715 105.579 L 73.715 105.579 L 73.715 102.077 L 72.872 102.077 L 72.872 101.648 L 73.715 101.277 L 74.091 100.02 L 74.606 100.02 L 74.606 101.385 L 76.314 101.385 L 76.314 102.077 L 74.606 102.077 L 74.606 105.542 L 74.606 105.542 Q 74.606 106.073 74.859 106.358 L 74.859 106.358 L 74.859 106.358 Q 75.111 106.643 75.552 106.643 Z  M 82.454 107.271 L 81.562 107.271 L 81.562 103.463 L 81.562 103.463 Q 81.562 102.743 81.234 102.389 L 81.234 102.389 L 81.234 102.389 Q 80.907 102.034 80.208 102.034 L 80.208 102.034 L 80.208 102.034 Q 79.279 102.034 78.852 102.539 L 78.852 102.539 L 78.852 102.539 Q 78.425 103.044 78.425 104.194 L 78.425 104.194 L 78.425 107.271 L 77.534 107.271 L 77.534 98.914 L 78.425 98.914 L 78.425 101.444 L 78.425 101.444 Q 78.425 101.9 78.382 102.201 L 78.382 102.201 L 78.436 102.201 L 78.436 102.201 Q 78.699 101.777 79.185 101.532 L 79.185 101.532 L 79.185 101.532 Q 79.671 101.288 80.294 101.288 L 80.294 101.288 L 80.294 101.288 Q 81.374 101.288 81.914 101.801 L 81.914 101.801 L 81.914 101.801 Q 82.454 102.314 82.454 103.431 L 82.454 103.431 L 82.454 107.271 Z  M 30.032 107.271 L 29.296 107.271 L 26.632 100.31 L 26.589 100.31 L 26.589 100.31 Q 26.664 101.137 26.664 102.276 L 26.664 102.276 L 26.664 107.271 L 25.821 107.271 L 25.821 99.419 L 27.196 99.419 L 29.683 105.896 L 29.726 105.896 L 32.234 99.419 L 33.598 99.419 L 33.598 107.271 L 32.685 107.271 L 32.685 102.212 L 32.685 102.212 Q 32.685 101.342 32.76 100.321 L 32.76 100.321 L 32.717 100.321 L 30.032 107.271 Z  M 39.898 107.271 L 39.238 107.271 L 39.061 106.433 L 39.018 106.433 L 39.018 106.433 Q 38.577 106.987 38.139 107.183 L 38.139 107.183 L 38.139 107.183 Q 37.702 107.379 37.046 107.379 L 37.046 107.379 L 37.046 107.379 Q 36.171 107.379 35.674 106.927 L 35.674 106.927 L 35.674 106.927 Q 35.177 106.476 35.177 105.644 L 35.177 105.644 L 35.177 105.644 Q 35.177 103.861 38.029 103.775 L 38.029 103.775 L 39.028 103.742 L 39.028 103.377 L 39.028 103.377 Q 39.028 102.684 38.73 102.354 L 38.73 102.354 L 38.73 102.354 Q 38.432 102.024 37.777 102.024 L 37.777 102.024 L 37.777 102.024 Q 37.041 102.024 36.112 102.475 L 36.112 102.475 L 35.838 101.793 L 35.838 101.793 Q 36.273 101.556 36.791 101.422 L 36.791 101.422 L 36.791 101.422 Q 37.31 101.288 37.831 101.288 L 37.831 101.288 L 37.831 101.288 Q 38.883 101.288 39.391 101.755 L 39.391 101.755 L 39.391 101.755 Q 39.898 102.222 39.898 103.254 L 39.898 103.254 L 39.898 107.271 Z  M 37.224 106.643 L 37.224 106.643 L 37.224 106.643 Q 38.056 106.643 38.531 106.186 L 38.531 106.186 L 38.531 106.186 Q 39.007 105.73 39.007 104.908 L 39.007 104.908 L 39.007 104.376 L 38.115 104.414 L 38.115 104.414 Q 37.052 104.451 36.582 104.744 L 36.582 104.744 L 36.582 104.744 Q 36.112 105.037 36.112 105.655 L 36.112 105.655 L 36.112 105.655 Q 36.112 106.138 36.405 106.39 L 36.405 106.39 L 36.405 106.39 Q 36.697 106.643 37.224 106.643 Z  M 44.421 101.277 L 44.421 101.277 L 44.421 101.277 Q 44.813 101.277 45.125 101.342 L 45.125 101.342 L 45.001 102.169 L 45.001 102.169 Q 44.636 102.088 44.356 102.088 L 44.356 102.088 L 44.356 102.088 Q 43.642 102.088 43.135 102.668 L 43.135 102.668 L 43.135 102.668 Q 42.627 103.248 42.627 104.113 L 42.627 104.113 L 42.627 107.271 L 41.735 107.271 L 41.735 101.385 L 42.471 101.385 L 42.573 102.475 L 42.616 102.475 L 42.616 102.475 Q 42.944 101.9 43.406 101.589 L 43.406 101.589 L 43.406 101.589 Q 43.868 101.277 44.421 101.277 Z  M 48.578 107.379 L 48.578 107.379 L 48.578 107.379 Q 47.3 107.379 46.599 106.592 L 46.599 106.592 L 46.599 106.592 Q 45.898 105.805 45.898 104.365 L 45.898 104.365 L 45.898 104.365 Q 45.898 102.888 46.61 102.083 L 46.61 102.083 L 46.61 102.083 Q 47.321 101.277 48.637 101.277 L 48.637 101.277 L 48.637 101.277 Q 49.062 101.277 49.486 101.368 L 49.486 101.368 L 49.486 101.368 Q 49.91 101.46 50.152 101.583 L 50.152 101.583 L 49.878 102.341 L 49.878 102.341 Q 49.583 102.222 49.233 102.145 L 49.233 102.145 L 49.233 102.145 Q 48.884 102.067 48.616 102.067 L 48.616 102.067 L 48.616 102.067 Q 46.822 102.067 46.822 104.355 L 46.822 104.355 L 46.822 104.355 Q 46.822 105.44 47.26 106.02 L 47.26 106.02 L 47.26 106.02 Q 47.697 106.6 48.557 106.6 L 48.557 106.6 L 48.557 106.6 Q 49.292 106.6 50.066 106.283 L 50.066 106.283 L 50.066 107.073 L 50.066 107.073 Q 49.475 107.379 48.578 107.379 Z  M 56.382 107.271 L 55.491 107.271 L 55.491 103.463 L 55.491 103.463 Q 55.491 102.743 55.163 102.389 L 55.163 102.389 L 55.163 102.389 Q 54.835 102.034 54.137 102.034 L 54.137 102.034 L 54.137 102.034 Q 53.208 102.034 52.781 102.539 L 52.781 102.539 L 52.781 102.539 Q 52.354 103.044 52.354 104.194 L 52.354 104.194 L 52.354 107.271 L 51.462 107.271 L 51.462 98.914 L 52.354 98.914 L 52.354 101.444 L 52.354 101.444 Q 52.354 101.9 52.311 102.201 L 52.311 102.201 L 52.365 102.201 L 52.365 102.201 Q 52.628 101.777 53.114 101.532 L 53.114 101.532 L 53.114 101.532 Q 53.6 101.288 54.223 101.288 L 54.223 101.288 L 54.223 101.288 Q 55.303 101.288 55.843 101.801 L 55.843 101.801 L 55.843 101.801 Q 56.382 102.314 56.382 103.431 L 56.382 103.431 L 56.382 107.271 Z " fill-rule="evenodd" fill="rgb(0,0,0)"/></g></svg>