<?xml version="1.0" standalone="no"?><!-- Generator: Gravit.io --><svg xmlns="http://www.w3.org/2000/svg" xmlns:xlink="http://www.w3.org/1999/xlink" style="isolation:isolate" viewBox="0 0 360 200" width="360" height="200"><defs><clipPath id="_clipPath_Kpk6FBSuDsrK5T4li4Kxi18DYiBqgL6j"><rect width="360" height="200"/></clipPath></defs><g clip-path="url(#_clipPath_Kpk6FBSuDsrK5T4li4Kxi18DYiBqgL6j)"><path d=" M 174.463 85.033 L 172.383 85.033 L 169.805 76.632 L 169.739 76.632 L 169.739 76.632 Q 169.878 79.195 169.878 80.052 L 169.878 80.052 L 169.878 85.033 L 167.849 85.033 L 167.849 74.325 L 170.94 74.325 L 173.474 82.513 L 173.518 82.513 L 176.206 74.325 L 179.297 74.325 L 179.297 85.033 L 177.18 85.033 L 177.18 79.964 L 177.18 79.964 Q 177.18 79.605 177.191 79.137 L 177.191 79.137 L 177.191 79.137 Q 177.202 78.668 177.29 76.646 L 177.29 76.646 L 177.224 76.646 L 174.463 85.033 Z  M 185.208 78.28 L 185.208 78.28 L 185.208 78.28 Q 184.497 78.28 184.094 78.73 L 184.094 78.73 L 184.094 78.73 Q 183.691 79.181 183.633 80.008 L 183.633 80.008 L 186.768 80.008 L 186.768 80.008 Q 186.753 79.181 186.335 78.73 L 186.335 78.73 L 186.335 78.73 Q 185.918 78.28 185.208 78.28 Z  M 185.522 85.179 L 185.522 85.179 L 185.522 85.179 Q 183.545 85.179 182.432 84.088 L 182.432 84.088 L 182.432 84.088 Q 181.318 82.997 181.318 80.997 L 181.318 80.997 L 181.318 80.997 Q 181.318 78.939 182.347 77.815 L 182.347 77.815 L 182.347 77.815 Q 183.376 76.69 185.193 76.69 L 185.193 76.69 L 185.193 76.69 Q 186.929 76.69 187.896 77.679 L 187.896 77.679 L 187.896 77.679 Q 188.862 78.668 188.862 80.411 L 188.862 80.411 L 188.862 81.495 L 183.582 81.495 L 183.582 81.495 Q 183.618 82.447 184.146 82.982 L 184.146 82.982 L 184.146 82.982 Q 184.673 83.517 185.625 83.517 L 185.625 83.517 L 185.625 83.517 Q 186.365 83.517 187.024 83.363 L 187.024 83.363 L 187.024 83.363 Q 187.683 83.209 188.401 82.872 L 188.401 82.872 L 188.401 84.601 L 188.401 84.601 Q 187.815 84.894 187.148 85.036 L 187.148 85.036 L 187.148 85.036 Q 186.482 85.179 185.522 85.179 Z  M 198.237 79.693 L 198.237 85.033 L 196.003 85.033 L 196.003 80.25 L 196.003 80.25 Q 196.003 79.364 195.688 78.921 L 195.688 78.921 L 195.688 78.921 Q 195.374 78.478 194.685 78.478 L 194.685 78.478 L 194.685 78.478 Q 193.748 78.478 193.33 79.104 L 193.33 79.104 L 193.33 79.104 Q 192.913 79.73 192.913 81.18 L 192.913 81.18 L 192.913 85.033 L 190.679 85.033 L 190.679 76.844 L 192.385 76.844 L 192.686 77.892 L 192.81 77.892 L 192.81 77.892 Q 193.184 77.298 193.839 76.994 L 193.839 76.994 L 193.839 76.994 Q 194.495 76.69 195.33 76.69 L 195.33 76.69 L 195.33 76.69 Q 196.758 76.69 197.498 77.463 L 197.498 77.463 L 197.498 77.463 Q 198.237 78.236 198.237 79.693 L 198.237 79.693 Z  M 208.052 85.033 L 206.338 85.033 L 206.038 83.985 L 205.92 83.985 L 205.92 83.985 Q 205.562 84.557 204.902 84.868 L 204.902 84.868 L 204.902 84.868 Q 204.243 85.179 203.401 85.179 L 203.401 85.179 L 203.401 85.179 Q 201.958 85.179 201.226 84.406 L 201.226 84.406 L 201.226 84.406 Q 200.493 83.634 200.493 82.184 L 200.493 82.184 L 200.493 76.844 L 202.727 76.844 L 202.727 81.627 L 202.727 81.627 Q 202.727 82.513 203.042 82.956 L 203.042 82.956 L 203.042 82.956 Q 203.357 83.399 204.045 83.399 L 204.045 83.399 L 204.045 83.399 Q 204.983 83.399 205.4 82.773 L 205.4 82.773 L 205.4 82.773 Q 205.818 82.147 205.818 80.697 L 205.818 80.697 L 205.818 76.844 L 208.052 76.844 L 208.052 85.033 Z  M 115.913 81.209 L 118.359 74.325 L 119.7 74.325 L 115.84 85.033 L 114.609 85.033 L 110.771 74.325 L 112.09 74.325 L 114.551 81.253 L 114.551 81.253 Q 114.976 82.447 115.225 83.575 L 115.225 83.575 L 115.225 83.575 Q 115.488 82.389 115.913 81.209 L 115.913 81.209 Z  M 124.38 85.179 L 124.38 85.179 L 124.38 85.179 Q 122.6 85.179 121.571 84.095 L 121.571 84.095 L 121.571 84.095 Q 120.542 83.011 120.542 81.085 L 120.542 81.085 L 120.542 81.085 Q 120.542 79.144 121.498 78.001 L 121.498 78.001 L 121.498 78.001 Q 122.454 76.859 124.065 76.859 L 124.065 76.859 L 124.065 76.859 Q 125.574 76.859 126.453 77.851 L 126.453 77.851 L 126.453 77.851 Q 127.332 78.844 127.332 80.47 L 127.332 80.47 L 127.332 81.239 L 121.802 81.239 L 121.802 81.239 Q 121.838 82.652 122.516 83.385 L 122.516 83.385 L 122.516 83.385 Q 123.193 84.117 124.424 84.117 L 124.424 84.117 L 124.424 84.117 Q 125.72 84.117 126.987 83.575 L 126.987 83.575 L 126.987 84.659 L 126.987 84.659 Q 126.343 84.938 125.768 85.058 L 125.768 85.058 L 125.768 85.058 Q 125.193 85.179 124.38 85.179 Z  M 124.05 77.877 L 124.05 77.877 L 124.05 77.877 Q 123.083 77.877 122.509 78.507 L 122.509 78.507 L 122.509 78.507 Q 121.934 79.137 121.831 80.25 L 121.831 80.25 L 126.028 80.25 L 126.028 80.25 Q 126.028 79.1 125.515 78.489 L 125.515 78.489 L 125.515 78.489 Q 125.002 77.877 124.05 77.877 Z  M 133.066 76.859 L 133.066 76.859 L 133.066 76.859 Q 133.601 76.859 134.026 76.947 L 134.026 76.947 L 133.857 78.075 L 133.857 78.075 Q 133.359 77.965 132.979 77.965 L 132.979 77.965 L 132.979 77.965 Q 132.004 77.965 131.312 78.756 L 131.312 78.756 L 131.312 78.756 Q 130.62 79.547 130.62 80.726 L 130.62 80.726 L 130.62 85.033 L 129.404 85.033 L 129.404 77.005 L 130.408 77.005 L 130.547 78.492 L 130.605 78.492 L 130.605 78.492 Q 131.052 77.708 131.682 77.284 L 131.682 77.284 L 131.682 77.284 Q 132.312 76.859 133.066 76.859 Z  M 138.12 84.176 L 138.12 84.176 L 138.12 84.176 Q 138.442 84.176 138.743 84.128 L 138.743 84.128 L 138.743 84.128 Q 139.043 84.081 139.219 84.029 L 139.219 84.029 L 139.219 84.959 L 139.219 84.959 Q 139.021 85.055 138.636 85.117 L 138.636 85.117 L 138.636 85.117 Q 138.252 85.179 137.944 85.179 L 137.944 85.179 L 137.944 85.179 Q 135.615 85.179 135.615 82.726 L 135.615 82.726 L 135.615 77.95 L 134.465 77.95 L 134.465 77.364 L 135.615 76.859 L 136.128 75.145 L 136.831 75.145 L 136.831 77.005 L 139.16 77.005 L 139.16 77.95 L 136.831 77.95 L 136.831 82.674 L 136.831 82.674 Q 136.831 83.399 137.175 83.788 L 137.175 83.788 L 137.175 83.788 Q 137.52 84.176 138.12 84.176 Z  M 142.039 77.005 L 142.039 85.033 L 140.823 85.033 L 140.823 77.005 L 142.039 77.005 Z  M 140.72 74.83 L 140.72 74.83 L 140.72 74.83 Q 140.72 74.413 140.925 74.219 L 140.925 74.219 L 140.925 74.219 Q 141.13 74.024 141.438 74.024 L 141.438 74.024 L 141.438 74.024 Q 141.731 74.024 141.943 74.222 L 141.943 74.222 L 141.943 74.222 Q 142.156 74.42 142.156 74.83 L 142.156 74.83 L 142.156 74.83 Q 142.156 75.24 141.943 75.442 L 141.943 75.442 L 141.943 75.442 Q 141.731 75.643 141.438 75.643 L 141.438 75.643 L 141.438 75.643 Q 141.13 75.643 140.925 75.442 L 140.925 75.442 L 140.925 75.442 Q 140.72 75.24 140.72 74.83 Z  M 147.825 85.179 L 147.825 85.179 L 147.825 85.179 Q 146.082 85.179 145.126 84.106 L 145.126 84.106 L 145.126 84.106 Q 144.17 83.033 144.17 81.07 L 144.17 81.07 L 144.17 81.07 Q 144.17 79.056 145.14 77.958 L 145.14 77.958 L 145.14 77.958 Q 146.111 76.859 147.905 76.859 L 147.905 76.859 L 147.905 76.859 Q 148.484 76.859 149.063 76.983 L 149.063 76.983 L 149.063 76.983 Q 149.641 77.108 149.971 77.276 L 149.971 77.276 L 149.597 78.309 L 149.597 78.309 Q 149.194 78.148 148.718 78.042 L 148.718 78.042 L 148.718 78.042 Q 148.242 77.936 147.876 77.936 L 147.876 77.936 L 147.876 77.936 Q 145.43 77.936 145.43 81.056 L 145.43 81.056 L 145.43 81.056 Q 145.43 82.535 146.027 83.326 L 146.027 83.326 L 146.027 83.326 Q 146.624 84.117 147.795 84.117 L 147.795 84.117 L 147.795 84.117 Q 148.799 84.117 149.854 83.685 L 149.854 83.685 L 149.854 84.762 L 149.854 84.762 Q 149.048 85.179 147.825 85.179 Z  M 157.595 85.033 L 156.694 85.033 L 156.453 83.89 L 156.394 83.89 L 156.394 83.89 Q 155.793 84.645 155.197 84.912 L 155.197 84.912 L 155.197 84.912 Q 154.6 85.179 153.706 85.179 L 153.706 85.179 L 153.706 85.179 Q 152.512 85.179 151.835 84.564 L 151.835 84.564 L 151.835 84.564 Q 151.157 83.949 151.157 82.813 L 151.157 82.813 L 151.157 82.813 Q 151.157 80.382 155.046 80.265 L 155.046 80.265 L 156.409 80.221 L 156.409 79.723 L 156.409 79.723 Q 156.409 78.778 156.002 78.327 L 156.002 78.327 L 156.002 78.327 Q 155.596 77.877 154.702 77.877 L 154.702 77.877 L 154.702 77.877 Q 153.699 77.877 152.432 78.492 L 152.432 78.492 L 152.058 77.562 L 152.058 77.562 Q 152.651 77.24 153.358 77.057 L 153.358 77.057 L 153.358 77.057 Q 154.065 76.874 154.775 76.874 L 154.775 76.874 L 154.775 76.874 Q 156.211 76.874 156.903 77.511 L 156.903 77.511 L 156.903 77.511 Q 157.595 78.148 157.595 79.554 L 157.595 79.554 L 157.595 85.033 Z  M 153.948 84.176 L 153.948 84.176 L 153.948 84.176 Q 155.083 84.176 155.731 83.553 L 155.731 83.553 L 155.731 83.553 Q 156.379 82.931 156.379 81.81 L 156.379 81.81 L 156.379 81.085 L 155.164 81.136 L 155.164 81.136 Q 153.713 81.188 153.073 81.587 L 153.073 81.587 L 153.073 81.587 Q 152.432 81.986 152.432 82.828 L 152.432 82.828 L 152.432 82.828 Q 152.432 83.487 152.831 83.832 L 152.831 83.832 L 152.831 83.832 Q 153.23 84.176 153.948 84.176 Z  M 161.316 73.636 L 161.316 85.033 L 160.1 85.033 L 160.1 73.636 L 161.316 73.636 Z  M 85.811 75.431 L 85.811 85.033 L 84.565 85.033 L 84.565 75.431 L 81.174 75.431 L 81.174 74.325 L 89.202 74.325 L 89.202 75.431 L 85.811 75.431 Z  M 96.467 85.033 L 95.566 85.033 L 95.325 83.89 L 95.266 83.89 L 95.266 83.89 Q 94.666 84.645 94.069 84.912 L 94.069 84.912 L 94.069 84.912 Q 93.472 85.179 92.578 85.179 L 92.578 85.179 L 92.578 85.179 Q 91.384 85.179 90.707 84.564 L 90.707 84.564 L 90.707 84.564 Q 90.029 83.949 90.029 82.813 L 90.029 82.813 L 90.029 82.813 Q 90.029 80.382 93.918 80.265 L 93.918 80.265 L 95.281 80.221 L 95.281 79.723 L 95.281 79.723 Q 95.281 78.778 94.874 78.327 L 94.874 78.327 L 94.874 78.327 Q 94.468 77.877 93.574 77.877 L 93.574 77.877 L 93.574 77.877 Q 92.571 77.877 91.304 78.492 L 91.304 78.492 L 90.93 77.562 L 90.93 77.562 Q 91.523 77.24 92.23 77.057 L 92.23 77.057 L 92.23 77.057 Q 92.937 76.874 93.647 76.874 L 93.647 76.874 L 93.647 76.874 Q 95.083 76.874 95.775 77.511 L 95.775 77.511 L 95.775 77.511 Q 96.467 78.148 96.467 79.554 L 96.467 79.554 L 96.467 85.033 Z  M 92.82 84.176 L 92.82 84.176 L 92.82 84.176 Q 93.955 84.176 94.603 83.553 L 94.603 83.553 L 94.603 83.553 Q 95.251 82.931 95.251 81.81 L 95.251 81.81 L 95.251 81.085 L 94.036 81.136 L 94.036 81.136 Q 92.585 81.188 91.945 81.587 L 91.945 81.587 L 91.945 81.587 Q 91.304 81.986 91.304 82.828 L 91.304 82.828 L 91.304 82.828 Q 91.304 83.487 91.703 83.832 L 91.703 83.832 L 91.703 83.832 Q 92.102 84.176 92.82 84.176 Z  M 102.708 85.179 L 102.708 85.179 L 102.708 85.179 Q 101.924 85.179 101.276 84.89 L 101.276 84.89 L 101.276 84.89 Q 100.627 84.601 100.188 84 L 100.188 84 L 100.1 84 L 100.1 84 Q 100.188 84.703 100.188 85.333 L 100.188 85.333 L 100.188 88.636 L 98.972 88.636 L 98.972 77.005 L 99.961 77.005 L 100.129 78.104 L 100.188 78.104 L 100.188 78.104 Q 100.657 77.445 101.279 77.152 L 101.279 77.152 L 101.279 77.152 Q 101.902 76.859 102.708 76.859 L 102.708 76.859 L 102.708 76.859 Q 104.304 76.859 105.172 77.95 L 105.172 77.95 L 105.172 77.95 Q 106.04 79.042 106.04 81.012 L 106.04 81.012 L 106.04 81.012 Q 106.04 82.989 105.157 84.084 L 105.157 84.084 L 105.157 84.084 Q 104.275 85.179 102.708 85.179 Z  M 102.532 77.892 L 102.532 77.892 L 102.532 77.892 Q 101.301 77.892 100.752 78.573 L 100.752 78.573 L 100.752 78.573 Q 100.203 79.254 100.188 80.741 L 100.188 80.741 L 100.188 81.012 L 100.188 81.012 Q 100.188 82.704 100.752 83.432 L 100.752 83.432 L 100.752 83.432 Q 101.316 84.161 102.561 84.161 L 102.561 84.161 L 102.561 84.161 Q 103.601 84.161 104.191 83.319 L 104.191 83.319 L 104.191 83.319 Q 104.78 82.477 104.78 80.997 L 104.78 80.997 L 104.78 80.997 Q 104.78 79.496 104.191 78.694 L 104.191 78.694 L 104.191 78.694 Q 103.601 77.892 102.532 77.892 Z " fill-rule="evenodd" fill="rgb(0,0,0)"/><path d=" M 237.253 115.059 L 237.253 115.059 L 237.253 115.059 Q 237.253 116.509 236.21 117.344 L 236.21 117.344 L 236.21 117.344 Q 235.166 118.179 233.306 118.179 L 233.306 118.179 L 233.306 118.179 Q 231.592 118.179 230.273 117.535 L 230.273 117.535 L 230.273 115.425 L 230.273 115.425 Q 231.357 115.909 232.108 116.106 L 232.108 116.106 L 232.108 116.106 Q 232.859 116.304 233.481 116.304 L 233.481 116.304 L 233.481 116.304 Q 234.229 116.304 234.628 116.019 L 234.628 116.019 L 234.628 116.019 Q 235.027 115.733 235.027 115.169 L 235.027 115.169 L 235.027 115.169 Q 235.027 114.854 234.851 114.609 L 234.851 114.609 L 234.851 114.609 Q 234.675 114.363 234.335 114.136 L 234.335 114.136 L 234.335 114.136 Q 233.994 113.909 232.947 113.411 L 232.947 113.411 L 232.947 113.411 Q 231.965 112.95 231.475 112.525 L 231.475 112.525 L 231.475 112.525 Q 230.984 112.1 230.691 111.536 L 230.691 111.536 L 230.691 111.536 Q 230.398 110.972 230.398 110.218 L 230.398 110.218 L 230.398 110.218 Q 230.398 108.797 231.361 107.984 L 231.361 107.984 L 231.361 107.984 Q 232.324 107.171 234.023 107.171 L 234.023 107.171 L 234.023 107.171 Q 234.858 107.171 235.616 107.369 L 235.616 107.369 L 235.616 107.369 Q 236.375 107.566 237.202 107.925 L 237.202 107.925 L 236.47 109.69 L 236.47 109.69 Q 235.613 109.339 235.052 109.2 L 235.052 109.2 L 235.052 109.2 Q 234.492 109.061 233.95 109.061 L 233.95 109.061 L 233.95 109.061 Q 233.306 109.061 232.961 109.361 L 232.961 109.361 L 232.961 109.361 Q 232.617 109.661 232.617 110.145 L 232.617 110.145 L 232.617 110.145 Q 232.617 110.445 232.756 110.668 L 232.756 110.668 L 232.756 110.668 Q 232.896 110.892 233.199 111.1 L 233.199 111.1 L 233.199 111.1 Q 233.503 111.309 234.639 111.851 L 234.639 111.851 L 234.639 111.851 Q 236.14 112.569 236.697 113.29 L 236.697 113.29 L 236.697 113.29 Q 237.253 114.012 237.253 115.059 Z  M 242.344 118.179 L 242.344 118.179 L 242.344 118.179 Q 238.521 118.179 238.521 113.982 L 238.521 113.982 L 238.521 113.982 Q 238.521 111.895 239.561 110.793 L 239.561 110.793 L 239.561 110.793 Q 240.601 109.69 242.542 109.69 L 242.542 109.69 L 242.542 109.69 Q 243.962 109.69 245.09 110.247 L 245.09 110.247 L 244.431 111.976 L 244.431 111.976 Q 243.904 111.763 243.45 111.628 L 243.45 111.628 L 243.45 111.628 Q 242.996 111.492 242.542 111.492 L 242.542 111.492 L 242.542 111.492 Q 240.798 111.492 240.798 113.968 L 240.798 113.968 L 240.798 113.968 Q 240.798 116.37 242.542 116.37 L 242.542 116.37 L 242.542 116.37 Q 243.186 116.37 243.735 116.198 L 243.735 116.198 L 243.735 116.198 Q 244.285 116.026 244.834 115.66 L 244.834 115.66 L 244.834 117.571 L 244.834 117.571 Q 244.292 117.916 243.739 118.047 L 243.739 118.047 L 243.739 118.047 Q 243.186 118.179 242.344 118.179 Z  M 251.301 109.69 L 251.301 109.69 L 251.301 109.69 Q 251.755 109.69 252.056 109.756 L 252.056 109.756 L 251.887 111.851 L 251.887 111.851 Q 251.616 111.778 251.228 111.778 L 251.228 111.778 L 251.228 111.778 Q 250.159 111.778 249.562 112.327 L 249.562 112.327 L 249.562 112.327 Q 248.965 112.876 248.965 113.865 L 248.965 113.865 L 248.965 118.033 L 246.731 118.033 L 246.731 109.844 L 248.423 109.844 L 248.752 111.221 L 248.862 111.221 L 248.862 111.221 Q 249.243 110.533 249.891 110.112 L 249.891 110.112 L 249.891 110.112 Q 250.54 109.69 251.301 109.69 Z  M 256.934 111.28 L 256.934 111.28 L 256.934 111.28 Q 256.223 111.28 255.82 111.73 L 255.82 111.73 L 255.82 111.73 Q 255.417 112.181 255.359 113.008 L 255.359 113.008 L 258.494 113.008 L 258.494 113.008 Q 258.479 112.181 258.062 111.73 L 258.062 111.73 L 258.062 111.73 Q 257.644 111.28 256.934 111.28 Z  M 257.249 118.179 L 257.249 118.179 L 257.249 118.179 Q 255.271 118.179 254.158 117.088 L 254.158 117.088 L 254.158 117.088 Q 253.044 115.997 253.044 113.997 L 253.044 113.997 L 253.044 113.997 Q 253.044 111.939 254.073 110.815 L 254.073 110.815 L 254.073 110.815 Q 255.103 109.69 256.919 109.69 L 256.919 109.69 L 256.919 109.69 Q 258.655 109.69 259.622 110.679 L 259.622 110.679 L 259.622 110.679 Q 260.588 111.668 260.588 113.411 L 260.588 113.411 L 260.588 114.495 L 255.308 114.495 L 255.308 114.495 Q 255.344 115.447 255.872 115.982 L 255.872 115.982 L 255.872 115.982 Q 256.399 116.517 257.351 116.517 L 257.351 116.517 L 257.351 116.517 Q 258.091 116.517 258.75 116.363 L 258.75 116.363 L 258.75 116.363 Q 259.409 116.209 260.127 115.872 L 260.127 115.872 L 260.127 117.601 L 260.127 117.601 Q 259.541 117.894 258.875 118.036 L 258.875 118.036 L 258.875 118.036 Q 258.208 118.179 257.249 118.179 Z  M 265.796 111.28 L 265.796 111.28 L 265.796 111.28 Q 265.085 111.28 264.683 111.73 L 264.683 111.73 L 264.683 111.73 Q 264.28 112.181 264.221 113.008 L 264.221 113.008 L 267.356 113.008 L 267.356 113.008 Q 267.341 112.181 266.924 111.73 L 266.924 111.73 L 266.924 111.73 Q 266.506 111.28 265.796 111.28 Z  M 266.111 118.179 L 266.111 118.179 L 266.111 118.179 Q 264.133 118.179 263.02 117.088 L 263.02 117.088 L 263.02 117.088 Q 261.907 115.997 261.907 113.997 L 261.907 113.997 L 261.907 113.997 Q 261.907 111.939 262.936 110.815 L 262.936 110.815 L 262.936 110.815 Q 263.965 109.69 265.781 109.69 L 265.781 109.69 L 265.781 109.69 Q 267.517 109.69 268.484 110.679 L 268.484 110.679 L 268.484 110.679 Q 269.451 111.668 269.451 113.411 L 269.451 113.411 L 269.451 114.495 L 264.17 114.495 L 264.17 114.495 Q 264.207 115.447 264.734 115.982 L 264.734 115.982 L 264.734 115.982 Q 265.261 116.517 266.213 116.517 L 266.213 116.517 L 266.213 116.517 Q 266.953 116.517 267.612 116.363 L 267.612 116.363 L 267.612 116.363 Q 268.271 116.209 268.989 115.872 L 268.989 115.872 L 268.989 117.601 L 268.989 117.601 Q 268.403 117.894 267.737 118.036 L 267.737 118.036 L 267.737 118.036 Q 267.07 118.179 266.111 118.179 Z  M 278.826 112.693 L 278.826 118.033 L 276.592 118.033 L 276.592 113.25 L 276.592 113.25 Q 276.592 112.364 276.277 111.921 L 276.277 111.921 L 276.277 111.921 Q 275.962 111.478 275.273 111.478 L 275.273 111.478 L 275.273 111.478 Q 274.336 111.478 273.918 112.104 L 273.918 112.104 L 273.918 112.104 Q 273.501 112.73 273.501 114.18 L 273.501 114.18 L 273.501 118.033 L 271.267 118.033 L 271.267 109.844 L 272.974 109.844 L 273.274 110.892 L 273.398 110.892 L 273.398 110.892 Q 273.772 110.298 274.427 109.994 L 274.427 109.994 L 274.427 109.994 Q 275.083 109.69 275.918 109.69 L 275.918 109.69 L 275.918 109.69 Q 277.346 109.69 278.086 110.463 L 278.086 110.463 L 278.086 110.463 Q 278.826 111.236 278.826 112.693 L 278.826 112.693 Z  M 191.455 107.325 L 191.455 118.033 L 189.192 118.033 L 189.192 113.411 L 184.951 113.411 L 184.951 118.033 L 182.681 118.033 L 182.681 107.325 L 184.951 107.325 L 184.951 111.521 L 189.192 111.521 L 189.192 107.325 L 191.455 107.325 Z  M 195.762 113.924 L 195.762 113.924 L 195.762 113.924 Q 195.762 115.14 196.161 115.762 L 196.161 115.762 L 196.161 115.762 Q 196.56 116.385 197.461 116.385 L 197.461 116.385 L 197.461 116.385 Q 198.354 116.385 198.746 115.766 L 198.746 115.766 L 198.746 115.766 Q 199.138 115.147 199.138 113.924 L 199.138 113.924 L 199.138 113.924 Q 199.138 112.708 198.743 112.1 L 198.743 112.1 L 198.743 112.1 Q 198.347 111.492 197.446 111.492 L 197.446 111.492 L 197.446 111.492 Q 196.553 111.492 196.157 112.096 L 196.157 112.096 L 196.157 112.096 Q 195.762 112.701 195.762 113.924 Z  M 201.423 113.924 L 201.423 113.924 L 201.423 113.924 Q 201.423 115.923 200.369 117.051 L 200.369 117.051 L 200.369 117.051 Q 199.314 118.179 197.432 118.179 L 197.432 118.179 L 197.432 118.179 Q 196.252 118.179 195.352 117.663 L 195.352 117.663 L 195.352 117.663 Q 194.451 117.146 193.967 116.18 L 193.967 116.18 L 193.967 116.18 Q 193.484 115.213 193.484 113.924 L 193.484 113.924 L 193.484 113.924 Q 193.484 111.917 194.531 110.804 L 194.531 110.804 L 194.531 110.804 Q 195.579 109.69 197.476 109.69 L 197.476 109.69 L 197.476 109.69 Q 198.655 109.69 199.556 110.203 L 199.556 110.203 L 199.556 110.203 Q 200.457 110.716 200.94 111.675 L 200.94 111.675 L 200.94 111.675 Q 201.423 112.635 201.423 113.924 Z  M 210.601 113.924 L 210.601 118.033 L 208.367 118.033 L 208.367 113.25 L 208.367 113.25 Q 208.367 112.364 208.07 111.921 L 208.07 111.921 L 208.07 111.921 Q 207.773 111.478 207.136 111.478 L 207.136 111.478 L 207.136 111.478 Q 206.279 111.478 205.891 112.107 L 205.891 112.107 L 205.891 112.107 Q 205.503 112.737 205.503 114.18 L 205.503 114.18 L 205.503 118.033 L 203.269 118.033 L 203.269 109.844 L 204.976 109.844 L 205.276 110.892 L 205.4 110.892 L 205.4 110.892 Q 205.73 110.328 206.353 110.009 L 206.353 110.009 L 206.353 110.009 Q 206.975 109.69 207.781 109.69 L 207.781 109.69 L 207.781 109.69 Q 209.619 109.69 210.271 110.892 L 210.271 110.892 L 210.469 110.892 L 210.469 110.892 Q 210.798 110.32 211.439 110.005 L 211.439 110.005 L 211.439 110.005 Q 212.08 109.69 212.886 109.69 L 212.886 109.69 L 212.886 109.69 Q 214.277 109.69 214.991 110.405 L 214.991 110.405 L 214.991 110.405 Q 215.706 111.119 215.706 112.693 L 215.706 112.693 L 215.706 118.033 L 213.464 118.033 L 213.464 113.25 L 213.464 113.25 Q 213.464 112.364 213.168 111.921 L 213.168 111.921 L 213.168 111.921 Q 212.871 111.478 212.234 111.478 L 212.234 111.478 L 212.234 111.478 Q 211.414 111.478 211.007 112.063 L 211.007 112.063 L 211.007 112.063 Q 210.601 112.649 210.601 113.924 L 210.601 113.924 Z  M 221.389 111.28 L 221.389 111.28 L 221.389 111.28 Q 220.679 111.28 220.276 111.73 L 220.276 111.73 L 220.276 111.73 Q 219.873 112.181 219.814 113.008 L 219.814 113.008 L 222.949 113.008 L 222.949 113.008 Q 222.935 112.181 222.517 111.73 L 222.517 111.73 L 222.517 111.73 Q 222.1 111.28 221.389 111.28 Z  M 221.704 118.179 L 221.704 118.179 L 221.704 118.179 Q 219.727 118.179 218.613 117.088 L 218.613 117.088 L 218.613 117.088 Q 217.5 115.997 217.5 113.997 L 217.5 113.997 L 217.5 113.997 Q 217.5 111.939 218.529 110.815 L 218.529 110.815 L 218.529 110.815 Q 219.558 109.69 221.375 109.69 L 221.375 109.69 L 221.375 109.69 Q 223.11 109.69 224.077 110.679 L 224.077 110.679 L 224.077 110.679 Q 225.044 111.668 225.044 113.411 L 225.044 113.411 L 225.044 114.495 L 219.763 114.495 L 219.763 114.495 Q 219.8 115.447 220.327 115.982 L 220.327 115.982 L 220.327 115.982 Q 220.854 116.517 221.807 116.517 L 221.807 116.517 L 221.807 116.517 Q 222.546 116.517 223.206 116.363 L 223.206 116.363 L 223.206 116.363 Q 223.865 116.209 224.583 115.872 L 224.583 115.872 L 224.583 117.601 L 224.583 117.601 Q 223.997 117.894 223.33 118.036 L 223.33 118.036 L 223.33 118.036 Q 222.664 118.179 221.704 118.179 Z  M 164.941 109.214 L 164.941 118.033 L 162.671 118.033 L 162.671 109.214 L 159.763 109.214 L 159.763 107.325 L 167.849 107.325 L 167.849 109.214 L 164.941 109.214 Z  M 171.101 113.924 L 171.101 113.924 L 171.101 113.924 Q 171.101 115.14 171.5 115.762 L 171.5 115.762 L 171.5 115.762 Q 171.899 116.385 172.8 116.385 L 172.8 116.385 L 172.8 116.385 Q 173.694 116.385 174.086 115.766 L 174.086 115.766 L 174.086 115.766 Q 174.478 115.147 174.478 113.924 L 174.478 113.924 L 174.478 113.924 Q 174.478 112.708 174.082 112.1 L 174.082 112.1 L 174.082 112.1 Q 173.687 111.492 172.786 111.492 L 172.786 111.492 L 172.786 111.492 Q 171.892 111.492 171.497 112.096 L 171.497 112.096 L 171.497 112.096 Q 171.101 112.701 171.101 113.924 Z  M 176.763 113.924 L 176.763 113.924 L 176.763 113.924 Q 176.763 115.923 175.708 117.051 L 175.708 117.051 L 175.708 117.051 Q 174.653 118.179 172.771 118.179 L 172.771 118.179 L 172.771 118.179 Q 171.592 118.179 170.691 117.663 L 170.691 117.663 L 170.691 117.663 Q 169.79 117.146 169.307 116.18 L 169.307 116.18 L 169.307 116.18 Q 168.823 115.213 168.823 113.924 L 168.823 113.924 L 168.823 113.924 Q 168.823 111.917 169.871 110.804 L 169.871 110.804 L 169.871 110.804 Q 170.918 109.69 172.815 109.69 L 172.815 109.69 L 172.815 109.69 Q 173.994 109.69 174.895 110.203 L 174.895 110.203 L 174.895 110.203 Q 175.796 110.716 176.279 111.675 L 176.279 111.675 L 176.279 111.675 Q 176.763 112.635 176.763 113.924 Z  M 136.582 118.033 L 134.136 118.033 L 133.359 115.484 L 129.456 115.484 L 128.679 118.033 L 126.233 118.033 L 130.012 107.281 L 132.788 107.281 L 136.582 118.033 Z  M 130.027 113.58 L 132.817 113.58 L 132.817 113.58 Q 131.741 110.115 131.605 109.661 L 131.605 109.661 L 131.605 109.661 Q 131.47 109.207 131.411 108.943 L 131.411 108.943 L 131.411 108.943 Q 131.169 109.881 130.027 113.58 L 130.027 113.58 Z  M 140.347 118.179 L 140.347 118.179 L 140.347 118.179 Q 138.904 118.179 138.08 117.059 L 138.08 117.059 L 138.08 117.059 Q 137.256 115.938 137.256 113.953 L 137.256 113.953 L 137.256 113.953 Q 137.256 111.939 138.094 110.815 L 138.094 110.815 L 138.094 110.815 Q 138.933 109.69 140.405 109.69 L 140.405 109.69 L 140.405 109.69 Q 141.951 109.69 142.764 110.892 L 142.764 110.892 L 142.837 110.892 L 142.837 110.892 Q 142.668 109.976 142.668 109.258 L 142.668 109.258 L 142.668 106.636 L 144.91 106.636 L 144.91 118.033 L 143.196 118.033 L 142.764 116.971 L 142.668 116.971 L 142.668 116.971 Q 141.907 118.179 140.347 118.179 Z  M 141.13 116.399 L 141.13 116.399 L 141.13 116.399 Q 141.987 116.399 142.386 115.901 L 142.386 115.901 L 142.386 115.901 Q 142.786 115.403 142.822 114.209 L 142.822 114.209 L 142.822 113.968 L 142.822 113.968 Q 142.822 112.649 142.416 112.078 L 142.416 112.078 L 142.416 112.078 Q 142.009 111.507 141.094 111.507 L 141.094 111.507 L 141.094 111.507 Q 140.347 111.507 139.933 112.14 L 139.933 112.14 L 139.933 112.14 Q 139.519 112.774 139.519 113.982 L 139.519 113.982 L 139.519 113.982 Q 139.519 115.191 139.937 115.795 L 139.937 115.795 L 139.937 115.795 Q 140.354 116.399 141.13 116.399 Z  M 149.839 118.179 L 149.839 118.179 L 149.839 118.179 Q 148.396 118.179 147.572 117.059 L 147.572 117.059 L 147.572 117.059 Q 146.748 115.938 146.748 113.953 L 146.748 113.953 L 146.748 113.953 Q 146.748 111.939 147.587 110.815 L 147.587 110.815 L 147.587 110.815 Q 148.425 109.69 149.897 109.69 L 149.897 109.69 L 149.897 109.69 Q 151.443 109.69 152.256 110.892 L 152.256 110.892 L 152.329 110.892 L 152.329 110.892 Q 152.161 109.976 152.161 109.258 L 152.161 109.258 L 152.161 106.636 L 154.402 106.636 L 154.402 118.033 L 152.688 118.033 L 152.256 116.971 L 152.161 116.971 L 152.161 116.971 Q 151.399 118.179 149.839 118.179 Z  M 150.623 116.399 L 150.623 116.399 L 150.623 116.399 Q 151.479 116.399 151.879 115.901 L 151.879 115.901 L 151.879 115.901 Q 152.278 115.403 152.314 114.209 L 152.314 114.209 L 152.314 113.968 L 152.314 113.968 Q 152.314 112.649 151.908 112.078 L 151.908 112.078 L 151.908 112.078 Q 151.501 111.507 150.586 111.507 L 150.586 111.507 L 150.586 111.507 Q 149.839 111.507 149.425 112.14 L 149.425 112.14 L 149.425 112.14 Q 149.011 112.774 149.011 113.982 L 149.011 113.982 L 149.011 113.982 Q 149.011 115.191 149.429 115.795 L 149.429 115.795 L 149.429 115.795 Q 149.846 116.399 150.623 116.399 Z  M 88.557 115.184 L 88.557 115.184 L 88.557 115.184 Q 88.557 116.597 87.532 117.388 L 87.532 117.388 L 87.532 117.388 Q 86.506 118.179 84.749 118.179 L 84.749 118.179 L 84.749 118.179 Q 82.844 118.179 81.819 117.688 L 81.819 117.688 L 81.819 116.487 L 81.819 116.487 Q 82.478 116.766 83.254 116.927 L 83.254 116.927 L 83.254 116.927 Q 84.031 117.088 84.792 117.088 L 84.792 117.088 L 84.792 117.088 Q 86.038 117.088 86.667 116.615 L 86.667 116.615 L 86.667 116.615 Q 87.297 116.143 87.297 115.301 L 87.297 115.301 L 87.297 115.301 Q 87.297 114.744 87.074 114.389 L 87.074 114.389 L 87.074 114.389 Q 86.851 114.034 86.327 113.733 L 86.327 113.733 L 86.327 113.733 Q 85.803 113.433 84.734 113.052 L 84.734 113.052 L 84.734 113.052 Q 83.24 112.518 82.599 111.785 L 82.599 111.785 L 82.599 111.785 Q 81.958 111.053 81.958 109.874 L 81.958 109.874 L 81.958 109.874 Q 81.958 108.636 82.888 107.903 L 82.888 107.903 L 82.888 107.903 Q 83.818 107.171 85.349 107.171 L 85.349 107.171 L 85.349 107.171 Q 86.946 107.171 88.286 107.757 L 88.286 107.757 L 87.898 108.841 L 87.898 108.841 Q 86.572 108.284 85.32 108.284 L 85.32 108.284 L 85.32 108.284 Q 84.331 108.284 83.774 108.709 L 83.774 108.709 L 83.774 108.709 Q 83.218 109.134 83.218 109.888 L 83.218 109.888 L 83.218 109.888 Q 83.218 110.445 83.423 110.8 L 83.423 110.8 L 83.423 110.8 Q 83.628 111.155 84.115 111.452 L 84.115 111.452 L 84.115 111.452 Q 84.602 111.749 85.605 112.107 L 85.605 112.107 L 85.605 112.107 Q 87.29 112.708 87.924 113.396 L 87.924 113.396 L 87.924 113.396 Q 88.557 114.085 88.557 115.184 Z  M 93.955 118.179 L 93.955 118.179 L 93.955 118.179 Q 92.175 118.179 91.146 117.095 L 91.146 117.095 L 91.146 117.095 Q 90.117 116.011 90.117 114.085 L 90.117 114.085 L 90.117 114.085 Q 90.117 112.144 91.073 111.001 L 91.073 111.001 L 91.073 111.001 Q 92.029 109.859 93.64 109.859 L 93.64 109.859 L 93.64 109.859 Q 95.149 109.859 96.028 110.851 L 96.028 110.851 L 96.028 110.851 Q 96.907 111.844 96.907 113.47 L 96.907 113.47 L 96.907 114.239 L 91.377 114.239 L 91.377 114.239 Q 91.414 115.652 92.091 116.385 L 92.091 116.385 L 92.091 116.385 Q 92.769 117.117 93.999 117.117 L 93.999 117.117 L 93.999 117.117 Q 95.295 117.117 96.563 116.575 L 96.563 116.575 L 96.563 117.659 L 96.563 117.659 Q 95.918 117.938 95.343 118.058 L 95.343 118.058 L 95.343 118.058 Q 94.768 118.179 93.955 118.179 Z  M 93.625 110.877 L 93.625 110.877 L 93.625 110.877 Q 92.659 110.877 92.084 111.507 L 92.084 111.507 L 92.084 111.507 Q 91.509 112.137 91.406 113.25 L 91.406 113.25 L 95.603 113.25 L 95.603 113.25 Q 95.603 112.1 95.09 111.489 L 95.09 111.489 L 95.09 111.489 Q 94.578 110.877 93.625 110.877 Z  M 100.195 106.636 L 100.195 118.033 L 98.979 118.033 L 98.979 106.636 L 100.195 106.636 Z  M 106.165 118.179 L 106.165 118.179 L 106.165 118.179 Q 104.385 118.179 103.356 117.095 L 103.356 117.095 L 103.356 117.095 Q 102.327 116.011 102.327 114.085 L 102.327 114.085 L 102.327 114.085 Q 102.327 112.144 103.282 111.001 L 103.282 111.001 L 103.282 111.001 Q 104.238 109.859 105.85 109.859 L 105.85 109.859 L 105.85 109.859 Q 107.358 109.859 108.237 110.851 L 108.237 110.851 L 108.237 110.851 Q 109.116 111.844 109.116 113.47 L 109.116 113.47 L 109.116 114.239 L 103.586 114.239 L 103.586 114.239 Q 103.623 115.652 104.301 116.385 L 104.301 116.385 L 104.301 116.385 Q 104.978 117.117 106.208 117.117 L 106.208 117.117 L 106.208 117.117 Q 107.505 117.117 108.772 116.575 L 108.772 116.575 L 108.772 117.659 L 108.772 117.659 Q 108.127 117.938 107.552 118.058 L 107.552 118.058 L 107.552 118.058 Q 106.978 118.179 106.165 118.179 Z  M 105.835 110.877 L 105.835 110.877 L 105.835 110.877 Q 104.868 110.877 104.293 111.507 L 104.293 111.507 L 104.293 111.507 Q 103.718 112.137 103.616 113.25 L 103.616 113.25 L 107.813 113.25 L 107.813 113.25 Q 107.813 112.1 107.3 111.489 L 107.3 111.489 L 107.3 111.489 Q 106.787 110.877 105.835 110.877 Z  M 114.397 118.179 L 114.397 118.179 L 114.397 118.179 Q 112.654 118.179 111.698 117.106 L 111.698 117.106 L 111.698 117.106 Q 110.742 116.033 110.742 114.07 L 110.742 114.07 L 110.742 114.07 Q 110.742 112.056 111.713 110.958 L 111.713 110.958 L 111.713 110.958 Q 112.683 109.859 114.478 109.859 L 114.478 109.859 L 114.478 109.859 Q 115.056 109.859 115.635 109.983 L 115.635 109.983 L 115.635 109.983 Q 116.213 110.108 116.543 110.276 L 116.543 110.276 L 116.169 111.309 L 116.169 111.309 Q 115.767 111.148 115.291 111.042 L 115.291 111.042 L 115.291 111.042 Q 114.814 110.936 114.448 110.936 L 114.448 110.936 L 114.448 110.936 Q 112.002 110.936 112.002 114.056 L 112.002 114.056 L 112.002 114.056 Q 112.002 115.535 112.599 116.326 L 112.599 116.326 L 112.599 116.326 Q 113.196 117.117 114.368 117.117 L 114.368 117.117 L 114.368 117.117 Q 115.371 117.117 116.426 116.685 L 116.426 116.685 L 116.426 117.762 L 116.426 117.762 Q 115.62 118.179 114.397 118.179 Z  M 120.923 117.176 L 120.923 117.176 L 120.923 117.176 Q 121.245 117.176 121.545 117.128 L 121.545 117.128 L 121.545 117.128 Q 121.846 117.081 122.021 117.029 L 122.021 117.029 L 122.021 117.959 L 122.021 117.959 Q 121.824 118.055 121.439 118.117 L 121.439 118.117 L 121.439 118.117 Q 121.055 118.179 120.747 118.179 L 120.747 118.179 L 120.747 118.179 Q 118.418 118.179 118.418 115.726 L 118.418 115.726 L 118.418 110.95 L 117.268 110.95 L 117.268 110.364 L 118.418 109.859 L 118.931 108.145 L 119.634 108.145 L 119.634 110.005 L 121.963 110.005 L 121.963 110.95 L 119.634 110.95 L 119.634 115.674 L 119.634 115.674 Q 119.634 116.399 119.978 116.788 L 119.978 116.788 L 119.978 116.788 Q 120.322 117.176 120.923 117.176 Z " fill-rule="evenodd" fill="rgb(0,0,0)"/><path d=" M 225.042 76 C 226.147 76 227.042 75.105 227.042 74 C 227.042 72.895 226.147 72 225.042 72 C 223.938 72 223.042 72.895 223.042 74 C 223.046 75.103 223.939 75.997 225.042 76 L 225.042 76 Z  M 225.042 78 C 223.938 78 223.042 78.895 223.042 80 C 223.042 81.105 223.938 82 225.042 82 C 226.147 82 227.042 81.105 227.042 80 C 227.039 78.897 226.146 78.003 225.042 78 L 225.042 78 Z  M 225.042 84 C 223.938 84 223.042 84.895 223.042 86 C 223.042 87.105 223.938 88 225.042 88 C 226.147 88 227.042 87.105 227.042 86 C 227.039 84.897 226.146 84.003 225.042 84 L 225.042 84 Z " fill="rgb(0,0,0)"/></g></svg>