<?xml version="1.0" standalone="no"?><!-- Generator: Gravit.io --><svg xmlns="http://www.w3.org/2000/svg" xmlns:xlink="http://www.w3.org/1999/xlink" style="isolation:isolate" viewBox="0 0 142 229" width="142" height="229"><defs><clipPath id="_clipPath_g2hQcwQmpSiFPqPSJrGu9PL4FXfdxejc"><rect width="142" height="229"/></clipPath></defs><g clip-path="url(#_clipPath_g2hQcwQmpSiFPqPSJrGu9PL4FXfdxejc)"><g transform="matrix(1,0,0,1,12.5,10)"><text transform="matrix(1,0,0,1,0,10.688)" style="font-family:&quot;Open Sans&quot;;font-weight:400;font-size:10px;font-style:normal;fill:#000000;stroke:none;">Monday</text></g><g transform="matrix(1,0,0,1,11.25,23)"><text transform="matrix(1,0,0,1,0,14.964)" style="font-family:&quot;Open Sans&quot;;font-weight:600;font-size:14px;font-style:normal;fill:#000000;stroke:none;">Admiral Family </text><text transform="matrix(1,0,0,1,0,34.029)" style="font-family:&quot;Open Sans&quot;;font-weight:600;font-size:14px;font-style:normal;fill:#000000;stroke:none;">Lunch</text></g><g transform="matrix(1,0,0,1,11.25,68)"><text transform="matrix(1,0,0,1,0.938,12.826)" style="font-family:&quot;Open Sans&quot;;font-weight:400;font-size:12px;font-style:normal;fill:#000000;stroke:none;">Join us in the </text><text transform="matrix(1,0,0,1,0.938,29.168)" style="font-family:&quot;Open Sans&quot;;font-weight:400;font-size:12px;font-style:normal;fill:#000000;stroke:none;">Cafeteria for a </text><text transform="matrix(1,0,0,1,0.938,45.51)" style="font-family:&quot;Open Sans&quot;;font-weight:400;font-size:12px;font-style:normal;fill:#000000;stroke:none;">special lunch.  Share </text><text transform="matrix(1,0,0,1,0.938,61.852)" style="font-family:&quot;Open Sans&quot;;font-weight:400;font-size:12px;font-style:normal;fill:#000000;stroke:none;">a meal with your </text><text transform="matrix(1,0,0,1,0.938,78.193)" style="font-family:&quot;Open Sans&quot;;font-weight:400;font-size:12px;font-style:normal;fill:#000000;stroke:none;">Admiral family. Sit </text><text transform="matrix(1,0,0,1,0.938,94.535)" style="font-family:&quot;Open Sans&quot;;font-weight:400;font-size:12px;font-style:normal;fill:#000000;stroke:none;">with someone new </text><text transform="matrix(1,0,0,1,0.938,110.877)" style="font-family:&quot;Open Sans&quot;;font-weight:400;font-size:12px;font-style:normal;fill:#000000;stroke:none;">and learn </text><text transform="matrix(1,0,0,1,0.938,127.219)" style="font-family:&quot;Open Sans&quot;;font-weight:400;font-size:12px;font-style:normal;fill:#000000;stroke:none;">something about </text><text transform="matrix(1,0,0,1,0.938,143.561)" style="font-family:&quot;Open Sans&quot;;font-weight:400;font-size:12px;font-style:normal;fill:#000000;stroke:none;">someone! </text></g></g></svg>