<?xml version="1.0" standalone="no"?><!-- Generator: Gravit.io --><svg xmlns="http://www.w3.org/2000/svg" xmlns:xlink="http://www.w3.org/1999/xlink" style="isolation:isolate" viewBox="0 0 142 229" width="142" height="229"><defs><clipPath id="_clipPath_xypsicT5QF4Ux0oB9j0ash8KkyQdTc9c"><rect width="142" height="229"/></clipPath></defs><g clip-path="url(#_clipPath_xypsicT5QF4Ux0oB9j0ash8KkyQdTc9c)"><g transform="matrix(1,0,0,1,12.5,10)"><text transform="matrix(1,0,0,1,0,10.688)" style="font-family:&quot;Open Sans&quot;;font-weight:400;font-size:10px;font-style:normal;fill:#000000;stroke:none;">Friday</text></g><g transform="matrix(1,0,0,1,11.25,23)"><text transform="matrix(1,0,0,1,0,14.964)" style="font-family:&quot;Open Sans&quot;;font-weight:600;font-size:14px;font-style:normal;fill:#000000;stroke:none;">School </text><text transform="matrix(1,0,0,1,0,34.029)" style="font-family:&quot;Open Sans&quot;;font-weight:600;font-size:14px;font-style:normal;fill:#000000;stroke:none;">Assembly</text></g><g transform="matrix(1,0,0,1,11.25,68)"><text transform="matrix(1,0,0,1,0,12.826)" style="font-family:&quot;Open Sans&quot;;font-weight:400;font-size:12px;font-style:normal;fill:#000000;stroke:none;">Blair Kolkoski will </text><text transform="matrix(1,0,0,1,0,29.168)" style="font-family:&quot;Open Sans&quot;;font-weight:400;font-size:12px;font-style:normal;fill:#000000;stroke:none;">bring a message of </text><text transform="matrix(1,0,0,1,0,45.51)" style="font-family:&quot;Open Sans&quot;;font-weight:400;font-size:12px;font-style:normal;fill:#000000;stroke:none;">unity for the entire </text><text transform="matrix(1,0,0,1,0,61.852)" style="font-family:&quot;Open Sans&quot;;font-weight:400;font-size:12px;font-style:normal;fill:#000000;stroke:none;">GHS family.  </text></g></g></svg>