<?xml version="1.0" standalone="no"?><!-- Generator: Gravit.io --><svg xmlns="http://www.w3.org/2000/svg" xmlns:xlink="http://www.w3.org/1999/xlink" style="isolation:isolate" viewBox="0 0 142 229" width="142" height="229"><defs><clipPath id="_clipPath_LN0k65AFHvtEaF5fTswtvPMiNJSUoHZj"><rect width="142" height="229"/></clipPath></defs><g clip-path="url(#_clipPath_LN0k65AFHvtEaF5fTswtvPMiNJSUoHZj)"><g transform="matrix(1,0,0,1,12.5,10)"><text transform="matrix(1,0,0,1,0,10.688)" style="font-family:&quot;Open Sans&quot;;font-weight:400;font-size:10px;font-style:normal;fill:#000000;stroke:none;">Wednesday</text></g><g transform="matrix(1,0,0,1,11.25,23)"><text transform="matrix(1,0,0,1,1.066,14.964)" style="font-family:&quot;Open Sans&quot;;font-weight:600;font-size:14px;font-style:normal;fill:#000000;stroke:none;">Jazz Band And </text><text transform="matrix(1,0,0,1,1.066,34.029)" style="font-family:&quot;Open Sans&quot;;font-weight:600;font-size:14px;font-style:normal;fill:#000000;stroke:none;">Dinner</text></g><g transform="matrix(1,0,0,1,11.25,68)"><text transform="matrix(1,0,0,1,0.516,12.826)" style="font-family:&quot;Open Sans&quot;;font-weight:400;font-size:12px;font-style:normal;fill:#000000;stroke:none;">Bring your family to </text><text transform="matrix(1,0,0,1,0.516,29.168)" style="font-family:&quot;Open Sans&quot;;font-weight:400;font-size:12px;font-style:normal;fill:#000000;stroke:none;">hear the Jazz Band </text><text transform="matrix(1,0,0,1,0.516,45.51)" style="font-family:&quot;Open Sans&quot;;font-weight:400;font-size:12px;font-style:normal;fill:#000000;stroke:none;">and enjoy </text><text transform="matrix(1,0,0,1,0.516,61.852)" style="font-family:&quot;Open Sans&quot;;font-weight:400;font-size:12px;font-style:normal;fill:#000000;stroke:none;">Chick-Fil-A for </text><text transform="matrix(1,0,0,1,0.516,78.193)" style="font-family:&quot;Open Sans&quot;;font-weight:400;font-size:12px;font-style:normal;fill:#000000;stroke:none;">dinner.  All funds </text><text transform="matrix(1,0,0,1,0.516,94.535)" style="font-family:&quot;Open Sans&quot;;font-weight:400;font-size:12px;font-style:normal;fill:#000000;stroke:none;">raised will be </text><text transform="matrix(1,0,0,1,0.516,110.877)" style="font-family:&quot;Open Sans&quot;;font-weight:400;font-size:12px;font-style:normal;fill:#000000;stroke:none;">donated to the Boys </text><text transform="matrix(1,0,0,1,0.516,127.219)" style="font-family:&quot;Open Sans&quot;;font-weight:400;font-size:12px;font-style:normal;fill:#000000;stroke:none;">and Girls Club of the </text><text transform="matrix(1,0,0,1,0.516,143.561)" style="font-family:&quot;Open Sans&quot;;font-weight:400;font-size:12px;font-style:normal;fill:#000000;stroke:none;">Gulf Coast.  </text></g></g></svg>